%TF.GenerationSoftware,KiCad,Pcbnew,(5.1.9)-1*%
%TF.CreationDate,2021-02-06T23:27:04-06:00*%
%TF.ProjectId,USB2CAN,55534232-4341-44e2-9e6b-696361645f70,rev?*%
%TF.SameCoordinates,Original*%
%TF.FileFunction,Legend,Top*%
%TF.FilePolarity,Positive*%
%FSLAX46Y46*%
G04 Gerber Fmt 4.6, Leading zero omitted, Abs format (unit mm)*
G04 Created by KiCad (PCBNEW (5.1.9)-1) date 2021-02-06 23:27:04*
%MOMM*%
%LPD*%
G01*
G04 APERTURE LIST*
%ADD10C,0.190500*%
%ADD11C,0.120000*%
%ADD12C,0.100000*%
G04 APERTURE END LIST*
D10*
X156699857Y-108966000D02*
X156663571Y-109002285D01*
X156627285Y-108966000D01*
X156663571Y-108929714D01*
X156699857Y-108966000D01*
X156627285Y-108966000D01*
X157099000Y-108966000D02*
X157062714Y-109002285D01*
X157026428Y-108966000D01*
X157062714Y-108929714D01*
X157099000Y-108966000D01*
X157026428Y-108966000D01*
X156337000Y-109256285D02*
X156373285Y-109292571D01*
X156482142Y-109365142D01*
X156554714Y-109401428D01*
X156663571Y-109437714D01*
X156845000Y-109474000D01*
X156990142Y-109474000D01*
X157171571Y-109437714D01*
X157280428Y-109401428D01*
X157353000Y-109365142D01*
X157461857Y-109292571D01*
X157498142Y-109256285D01*
X129703285Y-88827428D02*
X129703285Y-89262857D01*
X128941285Y-89045142D02*
X129703285Y-89045142D01*
X129703285Y-89444285D02*
X128941285Y-89952285D01*
X129703285Y-89952285D02*
X128941285Y-89444285D01*
X128941285Y-91567000D02*
X129304142Y-91313000D01*
X128941285Y-91131571D02*
X129703285Y-91131571D01*
X129703285Y-91421857D01*
X129667000Y-91494428D01*
X129630714Y-91530714D01*
X129558142Y-91567000D01*
X129449285Y-91567000D01*
X129376714Y-91530714D01*
X129340428Y-91494428D01*
X129304142Y-91421857D01*
X129304142Y-91131571D01*
X129703285Y-91821000D02*
X128941285Y-92329000D01*
X129703285Y-92329000D02*
X128941285Y-91821000D01*
X146866428Y-114717285D02*
X146830142Y-114826142D01*
X146793857Y-114862428D01*
X146721285Y-114898714D01*
X146612428Y-114898714D01*
X146539857Y-114862428D01*
X146503571Y-114826142D01*
X146467285Y-114753571D01*
X146467285Y-114463285D01*
X147229285Y-114463285D01*
X147229285Y-114717285D01*
X147193000Y-114789857D01*
X147156714Y-114826142D01*
X147084142Y-114862428D01*
X147011571Y-114862428D01*
X146939000Y-114826142D01*
X146902714Y-114789857D01*
X146866428Y-114717285D01*
X146866428Y-114463285D01*
X146467285Y-115334142D02*
X146503571Y-115261571D01*
X146539857Y-115225285D01*
X146612428Y-115189000D01*
X146830142Y-115189000D01*
X146902714Y-115225285D01*
X146939000Y-115261571D01*
X146975285Y-115334142D01*
X146975285Y-115443000D01*
X146939000Y-115515571D01*
X146902714Y-115551857D01*
X146830142Y-115588142D01*
X146612428Y-115588142D01*
X146539857Y-115551857D01*
X146503571Y-115515571D01*
X146467285Y-115443000D01*
X146467285Y-115334142D01*
X146467285Y-116023571D02*
X146503571Y-115951000D01*
X146539857Y-115914714D01*
X146612428Y-115878428D01*
X146830142Y-115878428D01*
X146902714Y-115914714D01*
X146939000Y-115951000D01*
X146975285Y-116023571D01*
X146975285Y-116132428D01*
X146939000Y-116205000D01*
X146902714Y-116241285D01*
X146830142Y-116277571D01*
X146612428Y-116277571D01*
X146539857Y-116241285D01*
X146503571Y-116205000D01*
X146467285Y-116132428D01*
X146467285Y-116023571D01*
X146975285Y-116495285D02*
X146975285Y-116785571D01*
X147229285Y-116604142D02*
X146576142Y-116604142D01*
X146503571Y-116640428D01*
X146467285Y-116713000D01*
X146467285Y-116785571D01*
D11*
X156148000Y-105156000D02*
G75*
G03*
X156148000Y-105156000I-700000J0D01*
G01*
X156148000Y-107696000D02*
G75*
G03*
X156148000Y-107696000I-700000J0D01*
G01*
X136082000Y-106172000D02*
G75*
G03*
X136082000Y-106172000I-700000J0D01*
G01*
X156237000Y-115850936D02*
X156237000Y-116305064D01*
X157707000Y-115850936D02*
X157707000Y-116305064D01*
X157932000Y-112760000D02*
X157932000Y-110075000D01*
X157932000Y-110075000D02*
X156012000Y-110075000D01*
X156012000Y-110075000D02*
X156012000Y-112760000D01*
X143893000Y-88878000D02*
X138143000Y-88878000D01*
X143893000Y-92478000D02*
X143893000Y-88878000D01*
X138143000Y-92478000D02*
X143893000Y-92478000D01*
X155316000Y-112027000D02*
X155381000Y-112027000D01*
X155316000Y-115557000D02*
X155381000Y-115557000D01*
X148911000Y-112027000D02*
X148976000Y-112027000D01*
X148911000Y-115557000D02*
X148976000Y-115557000D01*
X148976000Y-116882000D02*
X148976000Y-115557000D01*
X155381000Y-115557000D02*
X155381000Y-112027000D01*
X148911000Y-115557000D02*
X148911000Y-112027000D01*
X143291800Y-97990000D02*
X143291800Y-96700000D01*
X143741800Y-97990000D02*
X143291800Y-97990000D01*
X143741800Y-98440000D02*
X143741800Y-97990000D01*
X143741800Y-105210000D02*
X143291800Y-105210000D01*
X143741800Y-104760000D02*
X143741800Y-105210000D01*
X136521800Y-97990000D02*
X136971800Y-97990000D01*
X136521800Y-98440000D02*
X136521800Y-97990000D01*
X136521800Y-105210000D02*
X136971800Y-105210000D01*
X136521800Y-104760000D02*
X136521800Y-105210000D01*
D12*
X156691000Y-90681000D02*
X156691000Y-90981000D01*
X156316000Y-90681000D02*
X156691000Y-90681000D01*
X150141000Y-90681000D02*
X150141000Y-91081000D01*
X150641000Y-90681000D02*
X150141000Y-90681000D01*
X156691000Y-94231000D02*
X156241000Y-94231000D01*
X156691000Y-93756000D02*
X156691000Y-94231000D01*
X150441000Y-94231000D02*
X150441000Y-94426000D01*
X150141000Y-93906000D02*
X150441000Y-94231000D01*
X150141000Y-93431000D02*
X150141000Y-93906000D01*
D11*
X150114000Y-99929000D02*
X146664000Y-99929000D01*
X150114000Y-99929000D02*
X152064000Y-99929000D01*
X150114000Y-105049000D02*
X148164000Y-105049000D01*
X150114000Y-105049000D02*
X152064000Y-105049000D01*
D12*
G36*
X143929000Y-116643000D02*
G01*
X143529000Y-116643000D01*
X143529000Y-115943000D01*
X143929000Y-115943000D01*
X143929000Y-116643000D01*
G37*
X143929000Y-116643000D02*
X143529000Y-116643000D01*
X143529000Y-115943000D01*
X143929000Y-115943000D01*
X143929000Y-116643000D01*
G36*
X143929000Y-114943000D02*
G01*
X143529000Y-114943000D01*
X143529000Y-114243000D01*
X143929000Y-114243000D01*
X143929000Y-114943000D01*
G37*
X143929000Y-114943000D02*
X143529000Y-114943000D01*
X143529000Y-114243000D01*
X143929000Y-114243000D01*
X143929000Y-114943000D01*
D11*
X141829000Y-115943000D02*
X141829000Y-114943000D01*
X144429000Y-115943000D02*
X141829000Y-115943000D01*
X144429000Y-114943000D02*
X144429000Y-115943000D01*
X141829000Y-114943000D02*
X144429000Y-114943000D01*
X140429000Y-116693000D02*
X140429000Y-114193000D01*
X145829000Y-116693000D02*
X140429000Y-116693000D01*
X145829000Y-114193000D02*
X145829000Y-116693000D01*
X140429000Y-114193000D02*
X145829000Y-114193000D01*
X145819800Y-111098064D02*
X145819800Y-110643936D01*
X144349800Y-111098064D02*
X144349800Y-110643936D01*
X131599000Y-108992936D02*
X131599000Y-109447064D01*
X133069000Y-108992936D02*
X133069000Y-109447064D01*
X141705000Y-111098064D02*
X141705000Y-110643936D01*
X140235000Y-111098064D02*
X140235000Y-110643936D01*
X130783000Y-105891064D02*
X130783000Y-105436936D01*
X129313000Y-105891064D02*
X129313000Y-105436936D01*
X129313000Y-108992936D02*
X129313000Y-109447064D01*
X130783000Y-108992936D02*
X130783000Y-109447064D01*
X132360936Y-100303000D02*
X132815064Y-100303000D01*
X132360936Y-98833000D02*
X132815064Y-98833000D01*
X132360936Y-102589000D02*
X132815064Y-102589000D01*
X132360936Y-101119000D02*
X132815064Y-101119000D01*
X149706064Y-97944000D02*
X149251936Y-97944000D01*
X149706064Y-99414000D02*
X149251936Y-99414000D01*
D12*
X177144000Y-87319200D02*
X176044000Y-87319200D01*
X177144000Y-88019200D02*
X177144000Y-87319200D01*
X177144000Y-118319200D02*
X175844000Y-118319200D01*
X177144000Y-117419200D02*
X177144000Y-118319200D01*
X158344000Y-118319200D02*
X158344000Y-116919200D01*
X159044000Y-118319200D02*
X158344000Y-118319200D01*
X158344000Y-87319200D02*
X158344000Y-89319200D01*
X159344000Y-87319200D02*
X158344000Y-87319200D01*
D11*
X129952000Y-114668000D02*
X129952000Y-115568000D01*
X139142000Y-114668000D02*
X139142000Y-115568000D01*
X129952000Y-118268000D02*
X129952000Y-120998000D01*
X139142000Y-118268000D02*
X139142000Y-120998000D01*
X130072000Y-111588000D02*
X139022000Y-111588000D01*
X129952000Y-120998000D02*
X139142000Y-120998000D01*
X143962000Y-112556000D02*
X143962000Y-109871000D01*
X142042000Y-112556000D02*
X143962000Y-112556000D01*
X142042000Y-109871000D02*
X142042000Y-112556000D01*
D12*
X156781000Y-100331000D02*
X156781000Y-100631000D01*
X156406000Y-100331000D02*
X156781000Y-100331000D01*
X156781000Y-103631000D02*
X156331000Y-103631000D01*
X156781000Y-103331000D02*
X156781000Y-103631000D01*
X156781000Y-103406000D02*
X156781000Y-103281000D01*
X155131000Y-103631000D02*
X155131000Y-103281000D01*
X155606000Y-103631000D02*
X155131000Y-103631000D01*
X155131000Y-100656000D02*
X154356000Y-100656000D01*
X155131000Y-100606000D02*
X155131000Y-100656000D01*
X155506000Y-100331000D02*
X155131000Y-100606000D01*
X155781000Y-100331000D02*
X155506000Y-100331000D01*
D11*
X133003000Y-88448000D02*
X130318000Y-88448000D01*
X133003000Y-90368000D02*
X133003000Y-88448000D01*
X130318000Y-90368000D02*
X133003000Y-90368000D01*
X133003000Y-90734000D02*
X130318000Y-90734000D01*
X133003000Y-92654000D02*
X133003000Y-90734000D01*
X130318000Y-92654000D02*
X133003000Y-92654000D01*
X133103252Y-94261000D02*
X132580748Y-94261000D01*
X133103252Y-95731000D02*
X132580748Y-95731000D01*
X134119252Y-96420000D02*
X133596748Y-96420000D01*
X134119252Y-97890000D02*
X133596748Y-97890000D01*
X147312748Y-95477000D02*
X147835252Y-95477000D01*
X147312748Y-94007000D02*
X147835252Y-94007000D01*
X145661748Y-97763000D02*
X146184252Y-97763000D01*
X145661748Y-96293000D02*
X146184252Y-96293000D01*
X145261000Y-107053748D02*
X145261000Y-107576252D01*
X143791000Y-107053748D02*
X143791000Y-107576252D01*
X133230252Y-103405000D02*
X132707748Y-103405000D01*
X133230252Y-104875000D02*
X132707748Y-104875000D01*
X139392252Y-92991000D02*
X138869748Y-92991000D01*
X139392252Y-94461000D02*
X138869748Y-94461000D01*
X142359748Y-94461000D02*
X142882252Y-94461000D01*
X142359748Y-92991000D02*
X142882252Y-92991000D01*
X149325000Y-89908748D02*
X149325000Y-90431252D01*
X147855000Y-89908748D02*
X147855000Y-90431252D01*
X135609000Y-91193252D02*
X135609000Y-90670748D01*
X134139000Y-91193252D02*
X134139000Y-90670748D01*
X154947252Y-99033000D02*
X154424748Y-99033000D01*
X154947252Y-97563000D02*
X154424748Y-97563000D01*
X151757748Y-107288000D02*
X152280252Y-107288000D01*
X151757748Y-105818000D02*
X152280252Y-105818000D01*
X148216252Y-105818000D02*
X147693748Y-105818000D01*
X148216252Y-107288000D02*
X147693748Y-107288000D01*
M02*
