%TF.GenerationSoftware,KiCad,Pcbnew,(5.1.9)-1*%
%TF.CreationDate,2021-02-06T23:27:04-06:00*%
%TF.ProjectId,USB2CAN,55534232-4341-44e2-9e6b-696361645f70,rev?*%
%TF.SameCoordinates,Original*%
%TF.FileFunction,Copper,L3,Inr*%
%TF.FilePolarity,Positive*%
%FSLAX46Y46*%
G04 Gerber Fmt 4.6, Leading zero omitted, Abs format (unit mm)*
G04 Created by KiCad (PCBNEW (5.1.9)-1) date 2021-02-06 23:27:04*
%MOMM*%
%LPD*%
G01*
G04 APERTURE LIST*
%TA.AperFunction,ComponentPad*%
%ADD10C,3.500000*%
%TD*%
%TA.AperFunction,ComponentPad*%
%ADD11C,2.000000*%
%TD*%
%TA.AperFunction,ComponentPad*%
%ADD12O,0.900000X1.700000*%
%TD*%
%TA.AperFunction,ComponentPad*%
%ADD13O,0.900000X2.400000*%
%TD*%
%TA.AperFunction,ComponentPad*%
%ADD14C,0.700000*%
%TD*%
%TA.AperFunction,ViaPad*%
%ADD15C,0.800000*%
%TD*%
%TA.AperFunction,Conductor*%
%ADD16C,0.254000*%
%TD*%
%TA.AperFunction,Conductor*%
%ADD17C,0.100000*%
%TD*%
G04 APERTURE END LIST*
D10*
X161544000Y-90324200D03*
X161544000Y-115314200D03*
D11*
X160124000Y-108299200D03*
X162964000Y-106929200D03*
X160124000Y-105559200D03*
X162964000Y-104189200D03*
X160124000Y-102819200D03*
X162964000Y-101449200D03*
X160124000Y-100079200D03*
X162964000Y-98709200D03*
X160124000Y-97339200D03*
D12*
X138872000Y-116628000D03*
X130222000Y-116628000D03*
D13*
X138872000Y-113248000D03*
X130222000Y-113248000D03*
D14*
X134972000Y-113618000D03*
X137522000Y-113618000D03*
X136672000Y-113618000D03*
X135822000Y-113618000D03*
X131572000Y-113618000D03*
X133272000Y-113618000D03*
X134122000Y-113618000D03*
X132422000Y-113618000D03*
X137522000Y-112268000D03*
X136672000Y-112268000D03*
X135822000Y-112268000D03*
X134972000Y-112268000D03*
X134122000Y-112268000D03*
X133272000Y-112268000D03*
X132422000Y-112268000D03*
X131572000Y-112268000D03*
D15*
X141986000Y-95250000D03*
X145034000Y-95250000D03*
X145034000Y-88138000D03*
X136652000Y-88138000D03*
X139700000Y-95250000D03*
X140843000Y-88138000D03*
X145034000Y-91567000D03*
X136652000Y-91567000D03*
X131445000Y-97028000D03*
X132080000Y-105664000D03*
X136685653Y-95216347D03*
X142936000Y-108392000D03*
X151130000Y-93472000D03*
X151130000Y-92202000D03*
X139479653Y-98899347D03*
X133858000Y-93345000D03*
X133985000Y-105664000D03*
X143106810Y-107188000D03*
X157480000Y-98298000D03*
X157480000Y-97282000D03*
X157480000Y-107696000D03*
X153416000Y-92202000D03*
X153416000Y-93472000D03*
X146304000Y-117602000D03*
X147828000Y-108204000D03*
X135572500Y-95313500D03*
X146558000Y-110236000D03*
X145711570Y-102957784D03*
X135112013Y-110871000D03*
X134112000Y-110871000D03*
D16*
X135509000Y-94532500D02*
X135495578Y-94532500D01*
X135344691Y-94562513D01*
X135202558Y-94621387D01*
X135074641Y-94706858D01*
X134965858Y-94815641D01*
X134880387Y-94943558D01*
X134821513Y-95085691D01*
X134791500Y-95236578D01*
X134791500Y-95390422D01*
X134821513Y-95541309D01*
X134880387Y-95683442D01*
X134965858Y-95811359D01*
X135074641Y-95920142D01*
X135202558Y-96005613D01*
X135344691Y-96064487D01*
X135495578Y-96094500D01*
X135509000Y-96094500D01*
X135509000Y-104902000D01*
X135511440Y-104926776D01*
X135518667Y-104950601D01*
X135530403Y-104972557D01*
X135546197Y-104991803D01*
X135565443Y-105007597D01*
X135587399Y-105019333D01*
X135611224Y-105026560D01*
X135636000Y-105029000D01*
X146050000Y-105029000D01*
X146074776Y-105026560D01*
X146098601Y-105019333D01*
X146120557Y-105007597D01*
X146139803Y-104991803D01*
X146155597Y-104972557D01*
X146167333Y-104950601D01*
X146174560Y-104926776D01*
X146177000Y-104902000D01*
X146177000Y-103586094D01*
X146209429Y-103564426D01*
X146318212Y-103455643D01*
X146403683Y-103327726D01*
X146462557Y-103185593D01*
X146492570Y-103034706D01*
X146492570Y-102880862D01*
X146462557Y-102729975D01*
X146403683Y-102587842D01*
X146318212Y-102459925D01*
X146209429Y-102351142D01*
X146177000Y-102329474D01*
X146177000Y-97205078D01*
X156699000Y-97205078D01*
X156699000Y-97358922D01*
X156729013Y-97509809D01*
X156787887Y-97651942D01*
X156873358Y-97779859D01*
X156883499Y-97790000D01*
X156873358Y-97800141D01*
X156787887Y-97928058D01*
X156729013Y-98070191D01*
X156699000Y-98221078D01*
X156699000Y-98374922D01*
X156729013Y-98525809D01*
X156787887Y-98667942D01*
X156873358Y-98795859D01*
X156982141Y-98904642D01*
X157110058Y-98990113D01*
X157252191Y-99048987D01*
X157403078Y-99079000D01*
X157556922Y-99079000D01*
X157707809Y-99048987D01*
X157849942Y-98990113D01*
X157977859Y-98904642D01*
X158086642Y-98795859D01*
X158172113Y-98667942D01*
X158230987Y-98525809D01*
X158261000Y-98374922D01*
X158261000Y-98221078D01*
X158230987Y-98070191D01*
X158172113Y-97928058D01*
X158086642Y-97800141D01*
X158076501Y-97790000D01*
X158086642Y-97779859D01*
X158172113Y-97651942D01*
X158230987Y-97509809D01*
X158261000Y-97358922D01*
X158261000Y-97205078D01*
X158260624Y-97203183D01*
X158743000Y-97203183D01*
X158743000Y-97475217D01*
X158796071Y-97742023D01*
X158900174Y-97993349D01*
X159051307Y-98219536D01*
X159243664Y-98411893D01*
X159469851Y-98563026D01*
X159721177Y-98667129D01*
X159932682Y-98709200D01*
X159721177Y-98751271D01*
X159469851Y-98855374D01*
X159243664Y-99006507D01*
X159051307Y-99198864D01*
X158900174Y-99425051D01*
X158796071Y-99676377D01*
X158743000Y-99943183D01*
X158743000Y-100215217D01*
X158796071Y-100482023D01*
X158900174Y-100733349D01*
X159051307Y-100959536D01*
X159243664Y-101151893D01*
X159469851Y-101303026D01*
X159721177Y-101407129D01*
X159932682Y-101449200D01*
X159721177Y-101491271D01*
X159469851Y-101595374D01*
X159243664Y-101746507D01*
X159051307Y-101938864D01*
X158900174Y-102165051D01*
X158796071Y-102416377D01*
X158743000Y-102683183D01*
X158743000Y-102955217D01*
X158796071Y-103222023D01*
X158900174Y-103473349D01*
X159051307Y-103699536D01*
X159243664Y-103891893D01*
X159469851Y-104043026D01*
X159721177Y-104147129D01*
X159932682Y-104189200D01*
X159721177Y-104231271D01*
X159469851Y-104335374D01*
X159243664Y-104486507D01*
X159051307Y-104678864D01*
X158900174Y-104905051D01*
X158796071Y-105156377D01*
X158743000Y-105423183D01*
X158743000Y-105695217D01*
X158796071Y-105962023D01*
X158900174Y-106213349D01*
X159051307Y-106439536D01*
X159243664Y-106631893D01*
X159469851Y-106783026D01*
X159721177Y-106887129D01*
X159932682Y-106929200D01*
X159721177Y-106971271D01*
X159469851Y-107075374D01*
X159243664Y-107226507D01*
X159051307Y-107418864D01*
X158900174Y-107645051D01*
X158796071Y-107896377D01*
X158743000Y-108163183D01*
X158743000Y-108435217D01*
X158796071Y-108702023D01*
X158900174Y-108953349D01*
X159051307Y-109179536D01*
X159243664Y-109371893D01*
X159469851Y-109523026D01*
X159721177Y-109627129D01*
X159987983Y-109680200D01*
X160260017Y-109680200D01*
X160526823Y-109627129D01*
X160778149Y-109523026D01*
X161004336Y-109371893D01*
X161196693Y-109179536D01*
X161347826Y-108953349D01*
X161451929Y-108702023D01*
X161505000Y-108435217D01*
X161505000Y-108163183D01*
X161451929Y-107896377D01*
X161347826Y-107645051D01*
X161196693Y-107418864D01*
X161004336Y-107226507D01*
X160778149Y-107075374D01*
X160526823Y-106971271D01*
X160315318Y-106929200D01*
X160526823Y-106887129D01*
X160778149Y-106783026D01*
X161004336Y-106631893D01*
X161196693Y-106439536D01*
X161347826Y-106213349D01*
X161451929Y-105962023D01*
X161505000Y-105695217D01*
X161505000Y-105423183D01*
X161451929Y-105156377D01*
X161347826Y-104905051D01*
X161196693Y-104678864D01*
X161004336Y-104486507D01*
X160778149Y-104335374D01*
X160526823Y-104231271D01*
X160315318Y-104189200D01*
X160526823Y-104147129D01*
X160778149Y-104043026D01*
X161004336Y-103891893D01*
X161196693Y-103699536D01*
X161347826Y-103473349D01*
X161451929Y-103222023D01*
X161505000Y-102955217D01*
X161505000Y-102683183D01*
X161451929Y-102416377D01*
X161347826Y-102165051D01*
X161196693Y-101938864D01*
X161004336Y-101746507D01*
X160778149Y-101595374D01*
X160526823Y-101491271D01*
X160315318Y-101449200D01*
X160526823Y-101407129D01*
X160778149Y-101303026D01*
X161004336Y-101151893D01*
X161196693Y-100959536D01*
X161347826Y-100733349D01*
X161451929Y-100482023D01*
X161505000Y-100215217D01*
X161505000Y-99943183D01*
X161451929Y-99676377D01*
X161347826Y-99425051D01*
X161196693Y-99198864D01*
X161004336Y-99006507D01*
X160778149Y-98855374D01*
X160526823Y-98751271D01*
X160315318Y-98709200D01*
X160526823Y-98667129D01*
X160753627Y-98573183D01*
X161583000Y-98573183D01*
X161583000Y-98845217D01*
X161636071Y-99112023D01*
X161740174Y-99363349D01*
X161891307Y-99589536D01*
X162083664Y-99781893D01*
X162309851Y-99933026D01*
X162561177Y-100037129D01*
X162772682Y-100079200D01*
X162561177Y-100121271D01*
X162309851Y-100225374D01*
X162083664Y-100376507D01*
X161891307Y-100568864D01*
X161740174Y-100795051D01*
X161636071Y-101046377D01*
X161583000Y-101313183D01*
X161583000Y-101585217D01*
X161636071Y-101852023D01*
X161740174Y-102103349D01*
X161891307Y-102329536D01*
X162083664Y-102521893D01*
X162309851Y-102673026D01*
X162561177Y-102777129D01*
X162772682Y-102819200D01*
X162561177Y-102861271D01*
X162309851Y-102965374D01*
X162083664Y-103116507D01*
X161891307Y-103308864D01*
X161740174Y-103535051D01*
X161636071Y-103786377D01*
X161583000Y-104053183D01*
X161583000Y-104325217D01*
X161636071Y-104592023D01*
X161740174Y-104843349D01*
X161891307Y-105069536D01*
X162083664Y-105261893D01*
X162309851Y-105413026D01*
X162561177Y-105517129D01*
X162772682Y-105559200D01*
X162561177Y-105601271D01*
X162309851Y-105705374D01*
X162083664Y-105856507D01*
X161891307Y-106048864D01*
X161740174Y-106275051D01*
X161636071Y-106526377D01*
X161583000Y-106793183D01*
X161583000Y-107065217D01*
X161636071Y-107332023D01*
X161740174Y-107583349D01*
X161891307Y-107809536D01*
X162083664Y-108001893D01*
X162309851Y-108153026D01*
X162561177Y-108257129D01*
X162827983Y-108310200D01*
X163100017Y-108310200D01*
X163366823Y-108257129D01*
X163618149Y-108153026D01*
X163844336Y-108001893D01*
X164036693Y-107809536D01*
X164187826Y-107583349D01*
X164291929Y-107332023D01*
X164345000Y-107065217D01*
X164345000Y-106793183D01*
X164291929Y-106526377D01*
X164187826Y-106275051D01*
X164036693Y-106048864D01*
X163844336Y-105856507D01*
X163618149Y-105705374D01*
X163366823Y-105601271D01*
X163155318Y-105559200D01*
X163366823Y-105517129D01*
X163618149Y-105413026D01*
X163844336Y-105261893D01*
X164036693Y-105069536D01*
X164187826Y-104843349D01*
X164291929Y-104592023D01*
X164345000Y-104325217D01*
X164345000Y-104053183D01*
X164291929Y-103786377D01*
X164187826Y-103535051D01*
X164036693Y-103308864D01*
X163844336Y-103116507D01*
X163618149Y-102965374D01*
X163366823Y-102861271D01*
X163155318Y-102819200D01*
X163366823Y-102777129D01*
X163618149Y-102673026D01*
X163844336Y-102521893D01*
X164036693Y-102329536D01*
X164187826Y-102103349D01*
X164291929Y-101852023D01*
X164345000Y-101585217D01*
X164345000Y-101313183D01*
X164291929Y-101046377D01*
X164187826Y-100795051D01*
X164036693Y-100568864D01*
X163844336Y-100376507D01*
X163618149Y-100225374D01*
X163366823Y-100121271D01*
X163155318Y-100079200D01*
X163366823Y-100037129D01*
X163618149Y-99933026D01*
X163844336Y-99781893D01*
X164036693Y-99589536D01*
X164187826Y-99363349D01*
X164291929Y-99112023D01*
X164345000Y-98845217D01*
X164345000Y-98573183D01*
X164291929Y-98306377D01*
X164187826Y-98055051D01*
X164036693Y-97828864D01*
X163844336Y-97636507D01*
X163618149Y-97485374D01*
X163366823Y-97381271D01*
X163100017Y-97328200D01*
X162827983Y-97328200D01*
X162561177Y-97381271D01*
X162309851Y-97485374D01*
X162083664Y-97636507D01*
X161891307Y-97828864D01*
X161740174Y-98055051D01*
X161636071Y-98306377D01*
X161583000Y-98573183D01*
X160753627Y-98573183D01*
X160778149Y-98563026D01*
X161004336Y-98411893D01*
X161196693Y-98219536D01*
X161347826Y-97993349D01*
X161451929Y-97742023D01*
X161505000Y-97475217D01*
X161505000Y-97203183D01*
X161451929Y-96936377D01*
X161347826Y-96685051D01*
X161196693Y-96458864D01*
X161004336Y-96266507D01*
X160778149Y-96115374D01*
X160526823Y-96011271D01*
X160260017Y-95958200D01*
X159987983Y-95958200D01*
X159721177Y-96011271D01*
X159469851Y-96115374D01*
X159243664Y-96266507D01*
X159051307Y-96458864D01*
X158900174Y-96685051D01*
X158796071Y-96936377D01*
X158743000Y-97203183D01*
X158260624Y-97203183D01*
X158230987Y-97054191D01*
X158172113Y-96912058D01*
X158086642Y-96784141D01*
X157977859Y-96675358D01*
X157849942Y-96589887D01*
X157707809Y-96531013D01*
X157556922Y-96501000D01*
X157403078Y-96501000D01*
X157252191Y-96531013D01*
X157110058Y-96589887D01*
X156982141Y-96675358D01*
X156873358Y-96784141D01*
X156787887Y-96912058D01*
X156729013Y-97054191D01*
X156699000Y-97205078D01*
X146177000Y-97205078D01*
X146177000Y-92125078D01*
X150349000Y-92125078D01*
X150349000Y-92278922D01*
X150379013Y-92429809D01*
X150437887Y-92571942D01*
X150523358Y-92699859D01*
X150632141Y-92808642D01*
X150674582Y-92837000D01*
X150632141Y-92865358D01*
X150523358Y-92974141D01*
X150437887Y-93102058D01*
X150379013Y-93244191D01*
X150349000Y-93395078D01*
X150349000Y-93548922D01*
X150379013Y-93699809D01*
X150437887Y-93841942D01*
X150523358Y-93969859D01*
X150632141Y-94078642D01*
X150760058Y-94164113D01*
X150902191Y-94222987D01*
X151053078Y-94253000D01*
X151206922Y-94253000D01*
X151357809Y-94222987D01*
X151499942Y-94164113D01*
X151627859Y-94078642D01*
X151736642Y-93969859D01*
X151822113Y-93841942D01*
X151880987Y-93699809D01*
X151911000Y-93548922D01*
X151911000Y-93395078D01*
X151880987Y-93244191D01*
X151822113Y-93102058D01*
X151736642Y-92974141D01*
X151627859Y-92865358D01*
X151585418Y-92837000D01*
X151627859Y-92808642D01*
X151736642Y-92699859D01*
X151822113Y-92571942D01*
X151880987Y-92429809D01*
X151911000Y-92278922D01*
X151911000Y-92125078D01*
X151880987Y-91974191D01*
X151822113Y-91832058D01*
X151736642Y-91704141D01*
X151627859Y-91595358D01*
X151499942Y-91509887D01*
X151357809Y-91451013D01*
X151206922Y-91421000D01*
X151053078Y-91421000D01*
X150902191Y-91451013D01*
X150760058Y-91509887D01*
X150632141Y-91595358D01*
X150523358Y-91704141D01*
X150437887Y-91832058D01*
X150379013Y-91974191D01*
X150349000Y-92125078D01*
X146177000Y-92125078D01*
X146177000Y-90114315D01*
X159413000Y-90114315D01*
X159413000Y-90534085D01*
X159494893Y-90945790D01*
X159655532Y-91333607D01*
X159888744Y-91682633D01*
X160185567Y-91979456D01*
X160534593Y-92212668D01*
X160922410Y-92373307D01*
X161334115Y-92455200D01*
X161753885Y-92455200D01*
X162165590Y-92373307D01*
X162553407Y-92212668D01*
X162902433Y-91979456D01*
X163199256Y-91682633D01*
X163432468Y-91333607D01*
X163593107Y-90945790D01*
X163675000Y-90534085D01*
X163675000Y-90114315D01*
X163593107Y-89702610D01*
X163432468Y-89314793D01*
X163199256Y-88965767D01*
X162902433Y-88668944D01*
X162553407Y-88435732D01*
X162165590Y-88275093D01*
X161753885Y-88193200D01*
X161334115Y-88193200D01*
X160922410Y-88275093D01*
X160534593Y-88435732D01*
X160185567Y-88668944D01*
X159888744Y-88965767D01*
X159655532Y-89314793D01*
X159494893Y-89702610D01*
X159413000Y-90114315D01*
X146177000Y-90114315D01*
X146177000Y-87782000D01*
X166604145Y-87782000D01*
X166742106Y-87795527D01*
X166855713Y-87829827D01*
X166960491Y-87885539D01*
X167052455Y-87960543D01*
X167128099Y-88051982D01*
X167184542Y-88156371D01*
X167219633Y-88269732D01*
X167234001Y-88406434D01*
X167234000Y-117328146D01*
X167220473Y-117466105D01*
X167186174Y-117579709D01*
X167130461Y-117684492D01*
X167055459Y-117776453D01*
X166964020Y-117852098D01*
X166859628Y-117908543D01*
X166746269Y-117943633D01*
X166609576Y-117958000D01*
X129559854Y-117958000D01*
X129421895Y-117944473D01*
X129308291Y-117910174D01*
X129203508Y-117854461D01*
X129111547Y-117779459D01*
X129035902Y-117688020D01*
X128979457Y-117583628D01*
X128944367Y-117470269D01*
X128930000Y-117333576D01*
X128930000Y-116187186D01*
X129391000Y-116187186D01*
X129391000Y-117068815D01*
X129403026Y-117190904D01*
X129450543Y-117347548D01*
X129527707Y-117491912D01*
X129631553Y-117618448D01*
X129758089Y-117722294D01*
X129902453Y-117799458D01*
X130059097Y-117846975D01*
X130222000Y-117863020D01*
X130384904Y-117846975D01*
X130541548Y-117799458D01*
X130685912Y-117722294D01*
X130812448Y-117618448D01*
X130916294Y-117491912D01*
X130993458Y-117347548D01*
X131040975Y-117190904D01*
X131053000Y-117068815D01*
X131053000Y-116187186D01*
X138041000Y-116187186D01*
X138041000Y-117068815D01*
X138053026Y-117190904D01*
X138100543Y-117347548D01*
X138177707Y-117491912D01*
X138281553Y-117618448D01*
X138408089Y-117722294D01*
X138552453Y-117799458D01*
X138709097Y-117846975D01*
X138872000Y-117863020D01*
X139034904Y-117846975D01*
X139191548Y-117799458D01*
X139335912Y-117722294D01*
X139462448Y-117618448D01*
X139566294Y-117491912D01*
X139643458Y-117347548D01*
X139690975Y-117190904D01*
X139703000Y-117068815D01*
X139703000Y-116187185D01*
X139690975Y-116065096D01*
X139643458Y-115908452D01*
X139566294Y-115764088D01*
X139462448Y-115637552D01*
X139335911Y-115533706D01*
X139191547Y-115456542D01*
X139034903Y-115409025D01*
X138872000Y-115392980D01*
X138709096Y-115409025D01*
X138552452Y-115456542D01*
X138408088Y-115533706D01*
X138281552Y-115637552D01*
X138177706Y-115764089D01*
X138100542Y-115908453D01*
X138053025Y-116065097D01*
X138041000Y-116187186D01*
X131053000Y-116187186D01*
X131053000Y-116187185D01*
X131040975Y-116065096D01*
X130993458Y-115908452D01*
X130916294Y-115764088D01*
X130812448Y-115637552D01*
X130685911Y-115533706D01*
X130541547Y-115456542D01*
X130384903Y-115409025D01*
X130222000Y-115392980D01*
X130059096Y-115409025D01*
X129902452Y-115456542D01*
X129758088Y-115533706D01*
X129631552Y-115637552D01*
X129527706Y-115764089D01*
X129450542Y-115908453D01*
X129403025Y-116065097D01*
X129391000Y-116187186D01*
X128930000Y-116187186D01*
X128930000Y-115104315D01*
X159413000Y-115104315D01*
X159413000Y-115524085D01*
X159494893Y-115935790D01*
X159655532Y-116323607D01*
X159888744Y-116672633D01*
X160185567Y-116969456D01*
X160534593Y-117202668D01*
X160922410Y-117363307D01*
X161334115Y-117445200D01*
X161753885Y-117445200D01*
X162165590Y-117363307D01*
X162553407Y-117202668D01*
X162902433Y-116969456D01*
X163199256Y-116672633D01*
X163432468Y-116323607D01*
X163593107Y-115935790D01*
X163675000Y-115524085D01*
X163675000Y-115104315D01*
X163593107Y-114692610D01*
X163432468Y-114304793D01*
X163199256Y-113955767D01*
X162902433Y-113658944D01*
X162553407Y-113425732D01*
X162165590Y-113265093D01*
X161753885Y-113183200D01*
X161334115Y-113183200D01*
X160922410Y-113265093D01*
X160534593Y-113425732D01*
X160185567Y-113658944D01*
X159888744Y-113955767D01*
X159655532Y-114304793D01*
X159494893Y-114692610D01*
X159413000Y-115104315D01*
X128930000Y-115104315D01*
X128930000Y-112457186D01*
X129391000Y-112457186D01*
X129391001Y-114038815D01*
X129403026Y-114160904D01*
X129450543Y-114317548D01*
X129527707Y-114461912D01*
X129631553Y-114588448D01*
X129758089Y-114692294D01*
X129902453Y-114769458D01*
X130059097Y-114816975D01*
X130222000Y-114833020D01*
X130384904Y-114816975D01*
X130541548Y-114769458D01*
X130685912Y-114692294D01*
X130812448Y-114588448D01*
X130916294Y-114461912D01*
X130993458Y-114317548D01*
X131040975Y-114160904D01*
X131044574Y-114124364D01*
X131106015Y-114185805D01*
X131225742Y-114265804D01*
X131358775Y-114320908D01*
X131500003Y-114349000D01*
X131643997Y-114349000D01*
X131785225Y-114320908D01*
X131918258Y-114265804D01*
X131997000Y-114213190D01*
X132075742Y-114265804D01*
X132208775Y-114320908D01*
X132350003Y-114349000D01*
X132493997Y-114349000D01*
X132635225Y-114320908D01*
X132768258Y-114265804D01*
X132847000Y-114213190D01*
X132925742Y-114265804D01*
X133058775Y-114320908D01*
X133200003Y-114349000D01*
X133343997Y-114349000D01*
X133485225Y-114320908D01*
X133618258Y-114265804D01*
X133697000Y-114213190D01*
X133775742Y-114265804D01*
X133908775Y-114320908D01*
X134050003Y-114349000D01*
X134193997Y-114349000D01*
X134335225Y-114320908D01*
X134468258Y-114265804D01*
X134547000Y-114213190D01*
X134625742Y-114265804D01*
X134758775Y-114320908D01*
X134900003Y-114349000D01*
X135043997Y-114349000D01*
X135185225Y-114320908D01*
X135318258Y-114265804D01*
X135397000Y-114213190D01*
X135475742Y-114265804D01*
X135608775Y-114320908D01*
X135750003Y-114349000D01*
X135893997Y-114349000D01*
X136035225Y-114320908D01*
X136168258Y-114265804D01*
X136247000Y-114213190D01*
X136325742Y-114265804D01*
X136458775Y-114320908D01*
X136600003Y-114349000D01*
X136743997Y-114349000D01*
X136885225Y-114320908D01*
X137018258Y-114265804D01*
X137097000Y-114213190D01*
X137175742Y-114265804D01*
X137308775Y-114320908D01*
X137450003Y-114349000D01*
X137593997Y-114349000D01*
X137735225Y-114320908D01*
X137868258Y-114265804D01*
X137987985Y-114185805D01*
X138049427Y-114124363D01*
X138053026Y-114160904D01*
X138100543Y-114317548D01*
X138177707Y-114461912D01*
X138281553Y-114588448D01*
X138408089Y-114692294D01*
X138552453Y-114769458D01*
X138709097Y-114816975D01*
X138872000Y-114833020D01*
X139034904Y-114816975D01*
X139191548Y-114769458D01*
X139335912Y-114692294D01*
X139462448Y-114588448D01*
X139566294Y-114461912D01*
X139643458Y-114317548D01*
X139690975Y-114160904D01*
X139703000Y-114038815D01*
X139703000Y-112457185D01*
X139690975Y-112335096D01*
X139643458Y-112178452D01*
X139566294Y-112034088D01*
X139462448Y-111907552D01*
X139335911Y-111803706D01*
X139191547Y-111726542D01*
X139034903Y-111679025D01*
X138872000Y-111662980D01*
X138709096Y-111679025D01*
X138552452Y-111726542D01*
X138408088Y-111803706D01*
X138281552Y-111907552D01*
X138203381Y-112002804D01*
X138169804Y-111921742D01*
X138089805Y-111802015D01*
X137987985Y-111700195D01*
X137868258Y-111620196D01*
X137735225Y-111565092D01*
X137593997Y-111537000D01*
X137450003Y-111537000D01*
X137308775Y-111565092D01*
X137175742Y-111620196D01*
X137097000Y-111672810D01*
X137018258Y-111620196D01*
X136885225Y-111565092D01*
X136743997Y-111537000D01*
X136600003Y-111537000D01*
X136458775Y-111565092D01*
X136325742Y-111620196D01*
X136247000Y-111672810D01*
X136168258Y-111620196D01*
X136035225Y-111565092D01*
X135893997Y-111537000D01*
X135750003Y-111537000D01*
X135608775Y-111565092D01*
X135475742Y-111620196D01*
X135397000Y-111672810D01*
X135325270Y-111624881D01*
X135339822Y-111621987D01*
X135481955Y-111563113D01*
X135609872Y-111477642D01*
X135718655Y-111368859D01*
X135804126Y-111240942D01*
X135863000Y-111098809D01*
X135893013Y-110947922D01*
X135893013Y-110794078D01*
X135863000Y-110643191D01*
X135804126Y-110501058D01*
X135718655Y-110373141D01*
X135609872Y-110264358D01*
X135481955Y-110178887D01*
X135434133Y-110159078D01*
X145777000Y-110159078D01*
X145777000Y-110312922D01*
X145807013Y-110463809D01*
X145865887Y-110605942D01*
X145951358Y-110733859D01*
X146060141Y-110842642D01*
X146188058Y-110928113D01*
X146330191Y-110986987D01*
X146481078Y-111017000D01*
X146634922Y-111017000D01*
X146785809Y-110986987D01*
X146927942Y-110928113D01*
X147055859Y-110842642D01*
X147164642Y-110733859D01*
X147250113Y-110605942D01*
X147308987Y-110463809D01*
X147339000Y-110312922D01*
X147339000Y-110159078D01*
X147308987Y-110008191D01*
X147250113Y-109866058D01*
X147164642Y-109738141D01*
X147055859Y-109629358D01*
X146927942Y-109543887D01*
X146785809Y-109485013D01*
X146634922Y-109455000D01*
X146481078Y-109455000D01*
X146330191Y-109485013D01*
X146188058Y-109543887D01*
X146060141Y-109629358D01*
X145951358Y-109738141D01*
X145865887Y-109866058D01*
X145807013Y-110008191D01*
X145777000Y-110159078D01*
X135434133Y-110159078D01*
X135339822Y-110120013D01*
X135188935Y-110090000D01*
X135035091Y-110090000D01*
X134884204Y-110120013D01*
X134742071Y-110178887D01*
X134614154Y-110264358D01*
X134612007Y-110266506D01*
X134609859Y-110264358D01*
X134481942Y-110178887D01*
X134339809Y-110120013D01*
X134188922Y-110090000D01*
X134035078Y-110090000D01*
X133884191Y-110120013D01*
X133742058Y-110178887D01*
X133614141Y-110264358D01*
X133505358Y-110373141D01*
X133419887Y-110501058D01*
X133361013Y-110643191D01*
X133331000Y-110794078D01*
X133331000Y-110947922D01*
X133361013Y-111098809D01*
X133419887Y-111240942D01*
X133505358Y-111368859D01*
X133614141Y-111477642D01*
X133742058Y-111563113D01*
X133827805Y-111598631D01*
X133775742Y-111620196D01*
X133697000Y-111672810D01*
X133618258Y-111620196D01*
X133485225Y-111565092D01*
X133343997Y-111537000D01*
X133200003Y-111537000D01*
X133058775Y-111565092D01*
X132925742Y-111620196D01*
X132847000Y-111672810D01*
X132768258Y-111620196D01*
X132635225Y-111565092D01*
X132493997Y-111537000D01*
X132350003Y-111537000D01*
X132208775Y-111565092D01*
X132075742Y-111620196D01*
X131997000Y-111672810D01*
X131918258Y-111620196D01*
X131785225Y-111565092D01*
X131643997Y-111537000D01*
X131500003Y-111537000D01*
X131358775Y-111565092D01*
X131225742Y-111620196D01*
X131106015Y-111700195D01*
X131004195Y-111802015D01*
X130924196Y-111921742D01*
X130890619Y-112002803D01*
X130812448Y-111907552D01*
X130685911Y-111803706D01*
X130541547Y-111726542D01*
X130384903Y-111679025D01*
X130222000Y-111662980D01*
X130059096Y-111679025D01*
X129902452Y-111726542D01*
X129758088Y-111803706D01*
X129631552Y-111907552D01*
X129527706Y-112034089D01*
X129450542Y-112178453D01*
X129403025Y-112335097D01*
X129391000Y-112457186D01*
X128930000Y-112457186D01*
X128930000Y-108315078D01*
X142155000Y-108315078D01*
X142155000Y-108468922D01*
X142185013Y-108619809D01*
X142243887Y-108761942D01*
X142329358Y-108889859D01*
X142438141Y-108998642D01*
X142566058Y-109084113D01*
X142708191Y-109142987D01*
X142859078Y-109173000D01*
X143012922Y-109173000D01*
X143163809Y-109142987D01*
X143305942Y-109084113D01*
X143433859Y-108998642D01*
X143542642Y-108889859D01*
X143628113Y-108761942D01*
X143686987Y-108619809D01*
X143717000Y-108468922D01*
X143717000Y-108315078D01*
X143686987Y-108164191D01*
X143671615Y-108127078D01*
X147047000Y-108127078D01*
X147047000Y-108280922D01*
X147077013Y-108431809D01*
X147135887Y-108573942D01*
X147221358Y-108701859D01*
X147330141Y-108810642D01*
X147458058Y-108896113D01*
X147600191Y-108954987D01*
X147751078Y-108985000D01*
X147904922Y-108985000D01*
X148055809Y-108954987D01*
X148197942Y-108896113D01*
X148325859Y-108810642D01*
X148434642Y-108701859D01*
X148520113Y-108573942D01*
X148578987Y-108431809D01*
X148609000Y-108280922D01*
X148609000Y-108127078D01*
X148578987Y-107976191D01*
X148520113Y-107834058D01*
X148434642Y-107706141D01*
X148347579Y-107619078D01*
X156699000Y-107619078D01*
X156699000Y-107772922D01*
X156729013Y-107923809D01*
X156787887Y-108065942D01*
X156873358Y-108193859D01*
X156982141Y-108302642D01*
X157110058Y-108388113D01*
X157252191Y-108446987D01*
X157403078Y-108477000D01*
X157556922Y-108477000D01*
X157707809Y-108446987D01*
X157849942Y-108388113D01*
X157977859Y-108302642D01*
X158086642Y-108193859D01*
X158172113Y-108065942D01*
X158230987Y-107923809D01*
X158261000Y-107772922D01*
X158261000Y-107619078D01*
X158230987Y-107468191D01*
X158172113Y-107326058D01*
X158086642Y-107198141D01*
X157977859Y-107089358D01*
X157849942Y-107003887D01*
X157707809Y-106945013D01*
X157556922Y-106915000D01*
X157403078Y-106915000D01*
X157252191Y-106945013D01*
X157110058Y-107003887D01*
X156982141Y-107089358D01*
X156873358Y-107198141D01*
X156787887Y-107326058D01*
X156729013Y-107468191D01*
X156699000Y-107619078D01*
X148347579Y-107619078D01*
X148325859Y-107597358D01*
X148197942Y-107511887D01*
X148055809Y-107453013D01*
X147904922Y-107423000D01*
X147751078Y-107423000D01*
X147600191Y-107453013D01*
X147458058Y-107511887D01*
X147330141Y-107597358D01*
X147221358Y-107706141D01*
X147135887Y-107834058D01*
X147077013Y-107976191D01*
X147047000Y-108127078D01*
X143671615Y-108127078D01*
X143628113Y-108022058D01*
X143542642Y-107894141D01*
X143433859Y-107785358D01*
X143305942Y-107699887D01*
X143163809Y-107641013D01*
X143012922Y-107611000D01*
X142859078Y-107611000D01*
X142708191Y-107641013D01*
X142566058Y-107699887D01*
X142438141Y-107785358D01*
X142329358Y-107894141D01*
X142243887Y-108022058D01*
X142185013Y-108164191D01*
X142155000Y-108315078D01*
X128930000Y-108315078D01*
X128930000Y-105587078D01*
X131299000Y-105587078D01*
X131299000Y-105740922D01*
X131329013Y-105891809D01*
X131387887Y-106033942D01*
X131473358Y-106161859D01*
X131582141Y-106270642D01*
X131710058Y-106356113D01*
X131852191Y-106414987D01*
X132003078Y-106445000D01*
X132156922Y-106445000D01*
X132307809Y-106414987D01*
X132449942Y-106356113D01*
X132577859Y-106270642D01*
X132686642Y-106161859D01*
X132772113Y-106033942D01*
X132830987Y-105891809D01*
X132861000Y-105740922D01*
X132861000Y-105587078D01*
X132830987Y-105436191D01*
X132772113Y-105294058D01*
X132686642Y-105166141D01*
X132577859Y-105057358D01*
X132449942Y-104971887D01*
X132307809Y-104913013D01*
X132156922Y-104883000D01*
X132003078Y-104883000D01*
X131852191Y-104913013D01*
X131710058Y-104971887D01*
X131582141Y-105057358D01*
X131473358Y-105166141D01*
X131387887Y-105294058D01*
X131329013Y-105436191D01*
X131299000Y-105587078D01*
X128930000Y-105587078D01*
X128930000Y-96951078D01*
X130664000Y-96951078D01*
X130664000Y-97104922D01*
X130694013Y-97255809D01*
X130752887Y-97397942D01*
X130838358Y-97525859D01*
X130947141Y-97634642D01*
X131075058Y-97720113D01*
X131217191Y-97778987D01*
X131368078Y-97809000D01*
X131521922Y-97809000D01*
X131672809Y-97778987D01*
X131814942Y-97720113D01*
X131942859Y-97634642D01*
X132051642Y-97525859D01*
X132137113Y-97397942D01*
X132195987Y-97255809D01*
X132226000Y-97104922D01*
X132226000Y-96951078D01*
X132195987Y-96800191D01*
X132137113Y-96658058D01*
X132051642Y-96530141D01*
X131942859Y-96421358D01*
X131814942Y-96335887D01*
X131672809Y-96277013D01*
X131521922Y-96247000D01*
X131368078Y-96247000D01*
X131217191Y-96277013D01*
X131075058Y-96335887D01*
X130947141Y-96421358D01*
X130838358Y-96530141D01*
X130752887Y-96658058D01*
X130694013Y-96800191D01*
X130664000Y-96951078D01*
X128930000Y-96951078D01*
X128930000Y-88411855D01*
X128943527Y-88273894D01*
X128977827Y-88160287D01*
X129033539Y-88055509D01*
X129108543Y-87963545D01*
X129199982Y-87887901D01*
X129304371Y-87831458D01*
X129417732Y-87796367D01*
X129554424Y-87782000D01*
X135509000Y-87782000D01*
X135509000Y-94532500D01*
%TA.AperFunction,Conductor*%
D17*
G36*
X135509000Y-94532500D02*
G01*
X135495578Y-94532500D01*
X135344691Y-94562513D01*
X135202558Y-94621387D01*
X135074641Y-94706858D01*
X134965858Y-94815641D01*
X134880387Y-94943558D01*
X134821513Y-95085691D01*
X134791500Y-95236578D01*
X134791500Y-95390422D01*
X134821513Y-95541309D01*
X134880387Y-95683442D01*
X134965858Y-95811359D01*
X135074641Y-95920142D01*
X135202558Y-96005613D01*
X135344691Y-96064487D01*
X135495578Y-96094500D01*
X135509000Y-96094500D01*
X135509000Y-104902000D01*
X135511440Y-104926776D01*
X135518667Y-104950601D01*
X135530403Y-104972557D01*
X135546197Y-104991803D01*
X135565443Y-105007597D01*
X135587399Y-105019333D01*
X135611224Y-105026560D01*
X135636000Y-105029000D01*
X146050000Y-105029000D01*
X146074776Y-105026560D01*
X146098601Y-105019333D01*
X146120557Y-105007597D01*
X146139803Y-104991803D01*
X146155597Y-104972557D01*
X146167333Y-104950601D01*
X146174560Y-104926776D01*
X146177000Y-104902000D01*
X146177000Y-103586094D01*
X146209429Y-103564426D01*
X146318212Y-103455643D01*
X146403683Y-103327726D01*
X146462557Y-103185593D01*
X146492570Y-103034706D01*
X146492570Y-102880862D01*
X146462557Y-102729975D01*
X146403683Y-102587842D01*
X146318212Y-102459925D01*
X146209429Y-102351142D01*
X146177000Y-102329474D01*
X146177000Y-97205078D01*
X156699000Y-97205078D01*
X156699000Y-97358922D01*
X156729013Y-97509809D01*
X156787887Y-97651942D01*
X156873358Y-97779859D01*
X156883499Y-97790000D01*
X156873358Y-97800141D01*
X156787887Y-97928058D01*
X156729013Y-98070191D01*
X156699000Y-98221078D01*
X156699000Y-98374922D01*
X156729013Y-98525809D01*
X156787887Y-98667942D01*
X156873358Y-98795859D01*
X156982141Y-98904642D01*
X157110058Y-98990113D01*
X157252191Y-99048987D01*
X157403078Y-99079000D01*
X157556922Y-99079000D01*
X157707809Y-99048987D01*
X157849942Y-98990113D01*
X157977859Y-98904642D01*
X158086642Y-98795859D01*
X158172113Y-98667942D01*
X158230987Y-98525809D01*
X158261000Y-98374922D01*
X158261000Y-98221078D01*
X158230987Y-98070191D01*
X158172113Y-97928058D01*
X158086642Y-97800141D01*
X158076501Y-97790000D01*
X158086642Y-97779859D01*
X158172113Y-97651942D01*
X158230987Y-97509809D01*
X158261000Y-97358922D01*
X158261000Y-97205078D01*
X158260624Y-97203183D01*
X158743000Y-97203183D01*
X158743000Y-97475217D01*
X158796071Y-97742023D01*
X158900174Y-97993349D01*
X159051307Y-98219536D01*
X159243664Y-98411893D01*
X159469851Y-98563026D01*
X159721177Y-98667129D01*
X159932682Y-98709200D01*
X159721177Y-98751271D01*
X159469851Y-98855374D01*
X159243664Y-99006507D01*
X159051307Y-99198864D01*
X158900174Y-99425051D01*
X158796071Y-99676377D01*
X158743000Y-99943183D01*
X158743000Y-100215217D01*
X158796071Y-100482023D01*
X158900174Y-100733349D01*
X159051307Y-100959536D01*
X159243664Y-101151893D01*
X159469851Y-101303026D01*
X159721177Y-101407129D01*
X159932682Y-101449200D01*
X159721177Y-101491271D01*
X159469851Y-101595374D01*
X159243664Y-101746507D01*
X159051307Y-101938864D01*
X158900174Y-102165051D01*
X158796071Y-102416377D01*
X158743000Y-102683183D01*
X158743000Y-102955217D01*
X158796071Y-103222023D01*
X158900174Y-103473349D01*
X159051307Y-103699536D01*
X159243664Y-103891893D01*
X159469851Y-104043026D01*
X159721177Y-104147129D01*
X159932682Y-104189200D01*
X159721177Y-104231271D01*
X159469851Y-104335374D01*
X159243664Y-104486507D01*
X159051307Y-104678864D01*
X158900174Y-104905051D01*
X158796071Y-105156377D01*
X158743000Y-105423183D01*
X158743000Y-105695217D01*
X158796071Y-105962023D01*
X158900174Y-106213349D01*
X159051307Y-106439536D01*
X159243664Y-106631893D01*
X159469851Y-106783026D01*
X159721177Y-106887129D01*
X159932682Y-106929200D01*
X159721177Y-106971271D01*
X159469851Y-107075374D01*
X159243664Y-107226507D01*
X159051307Y-107418864D01*
X158900174Y-107645051D01*
X158796071Y-107896377D01*
X158743000Y-108163183D01*
X158743000Y-108435217D01*
X158796071Y-108702023D01*
X158900174Y-108953349D01*
X159051307Y-109179536D01*
X159243664Y-109371893D01*
X159469851Y-109523026D01*
X159721177Y-109627129D01*
X159987983Y-109680200D01*
X160260017Y-109680200D01*
X160526823Y-109627129D01*
X160778149Y-109523026D01*
X161004336Y-109371893D01*
X161196693Y-109179536D01*
X161347826Y-108953349D01*
X161451929Y-108702023D01*
X161505000Y-108435217D01*
X161505000Y-108163183D01*
X161451929Y-107896377D01*
X161347826Y-107645051D01*
X161196693Y-107418864D01*
X161004336Y-107226507D01*
X160778149Y-107075374D01*
X160526823Y-106971271D01*
X160315318Y-106929200D01*
X160526823Y-106887129D01*
X160778149Y-106783026D01*
X161004336Y-106631893D01*
X161196693Y-106439536D01*
X161347826Y-106213349D01*
X161451929Y-105962023D01*
X161505000Y-105695217D01*
X161505000Y-105423183D01*
X161451929Y-105156377D01*
X161347826Y-104905051D01*
X161196693Y-104678864D01*
X161004336Y-104486507D01*
X160778149Y-104335374D01*
X160526823Y-104231271D01*
X160315318Y-104189200D01*
X160526823Y-104147129D01*
X160778149Y-104043026D01*
X161004336Y-103891893D01*
X161196693Y-103699536D01*
X161347826Y-103473349D01*
X161451929Y-103222023D01*
X161505000Y-102955217D01*
X161505000Y-102683183D01*
X161451929Y-102416377D01*
X161347826Y-102165051D01*
X161196693Y-101938864D01*
X161004336Y-101746507D01*
X160778149Y-101595374D01*
X160526823Y-101491271D01*
X160315318Y-101449200D01*
X160526823Y-101407129D01*
X160778149Y-101303026D01*
X161004336Y-101151893D01*
X161196693Y-100959536D01*
X161347826Y-100733349D01*
X161451929Y-100482023D01*
X161505000Y-100215217D01*
X161505000Y-99943183D01*
X161451929Y-99676377D01*
X161347826Y-99425051D01*
X161196693Y-99198864D01*
X161004336Y-99006507D01*
X160778149Y-98855374D01*
X160526823Y-98751271D01*
X160315318Y-98709200D01*
X160526823Y-98667129D01*
X160753627Y-98573183D01*
X161583000Y-98573183D01*
X161583000Y-98845217D01*
X161636071Y-99112023D01*
X161740174Y-99363349D01*
X161891307Y-99589536D01*
X162083664Y-99781893D01*
X162309851Y-99933026D01*
X162561177Y-100037129D01*
X162772682Y-100079200D01*
X162561177Y-100121271D01*
X162309851Y-100225374D01*
X162083664Y-100376507D01*
X161891307Y-100568864D01*
X161740174Y-100795051D01*
X161636071Y-101046377D01*
X161583000Y-101313183D01*
X161583000Y-101585217D01*
X161636071Y-101852023D01*
X161740174Y-102103349D01*
X161891307Y-102329536D01*
X162083664Y-102521893D01*
X162309851Y-102673026D01*
X162561177Y-102777129D01*
X162772682Y-102819200D01*
X162561177Y-102861271D01*
X162309851Y-102965374D01*
X162083664Y-103116507D01*
X161891307Y-103308864D01*
X161740174Y-103535051D01*
X161636071Y-103786377D01*
X161583000Y-104053183D01*
X161583000Y-104325217D01*
X161636071Y-104592023D01*
X161740174Y-104843349D01*
X161891307Y-105069536D01*
X162083664Y-105261893D01*
X162309851Y-105413026D01*
X162561177Y-105517129D01*
X162772682Y-105559200D01*
X162561177Y-105601271D01*
X162309851Y-105705374D01*
X162083664Y-105856507D01*
X161891307Y-106048864D01*
X161740174Y-106275051D01*
X161636071Y-106526377D01*
X161583000Y-106793183D01*
X161583000Y-107065217D01*
X161636071Y-107332023D01*
X161740174Y-107583349D01*
X161891307Y-107809536D01*
X162083664Y-108001893D01*
X162309851Y-108153026D01*
X162561177Y-108257129D01*
X162827983Y-108310200D01*
X163100017Y-108310200D01*
X163366823Y-108257129D01*
X163618149Y-108153026D01*
X163844336Y-108001893D01*
X164036693Y-107809536D01*
X164187826Y-107583349D01*
X164291929Y-107332023D01*
X164345000Y-107065217D01*
X164345000Y-106793183D01*
X164291929Y-106526377D01*
X164187826Y-106275051D01*
X164036693Y-106048864D01*
X163844336Y-105856507D01*
X163618149Y-105705374D01*
X163366823Y-105601271D01*
X163155318Y-105559200D01*
X163366823Y-105517129D01*
X163618149Y-105413026D01*
X163844336Y-105261893D01*
X164036693Y-105069536D01*
X164187826Y-104843349D01*
X164291929Y-104592023D01*
X164345000Y-104325217D01*
X164345000Y-104053183D01*
X164291929Y-103786377D01*
X164187826Y-103535051D01*
X164036693Y-103308864D01*
X163844336Y-103116507D01*
X163618149Y-102965374D01*
X163366823Y-102861271D01*
X163155318Y-102819200D01*
X163366823Y-102777129D01*
X163618149Y-102673026D01*
X163844336Y-102521893D01*
X164036693Y-102329536D01*
X164187826Y-102103349D01*
X164291929Y-101852023D01*
X164345000Y-101585217D01*
X164345000Y-101313183D01*
X164291929Y-101046377D01*
X164187826Y-100795051D01*
X164036693Y-100568864D01*
X163844336Y-100376507D01*
X163618149Y-100225374D01*
X163366823Y-100121271D01*
X163155318Y-100079200D01*
X163366823Y-100037129D01*
X163618149Y-99933026D01*
X163844336Y-99781893D01*
X164036693Y-99589536D01*
X164187826Y-99363349D01*
X164291929Y-99112023D01*
X164345000Y-98845217D01*
X164345000Y-98573183D01*
X164291929Y-98306377D01*
X164187826Y-98055051D01*
X164036693Y-97828864D01*
X163844336Y-97636507D01*
X163618149Y-97485374D01*
X163366823Y-97381271D01*
X163100017Y-97328200D01*
X162827983Y-97328200D01*
X162561177Y-97381271D01*
X162309851Y-97485374D01*
X162083664Y-97636507D01*
X161891307Y-97828864D01*
X161740174Y-98055051D01*
X161636071Y-98306377D01*
X161583000Y-98573183D01*
X160753627Y-98573183D01*
X160778149Y-98563026D01*
X161004336Y-98411893D01*
X161196693Y-98219536D01*
X161347826Y-97993349D01*
X161451929Y-97742023D01*
X161505000Y-97475217D01*
X161505000Y-97203183D01*
X161451929Y-96936377D01*
X161347826Y-96685051D01*
X161196693Y-96458864D01*
X161004336Y-96266507D01*
X160778149Y-96115374D01*
X160526823Y-96011271D01*
X160260017Y-95958200D01*
X159987983Y-95958200D01*
X159721177Y-96011271D01*
X159469851Y-96115374D01*
X159243664Y-96266507D01*
X159051307Y-96458864D01*
X158900174Y-96685051D01*
X158796071Y-96936377D01*
X158743000Y-97203183D01*
X158260624Y-97203183D01*
X158230987Y-97054191D01*
X158172113Y-96912058D01*
X158086642Y-96784141D01*
X157977859Y-96675358D01*
X157849942Y-96589887D01*
X157707809Y-96531013D01*
X157556922Y-96501000D01*
X157403078Y-96501000D01*
X157252191Y-96531013D01*
X157110058Y-96589887D01*
X156982141Y-96675358D01*
X156873358Y-96784141D01*
X156787887Y-96912058D01*
X156729013Y-97054191D01*
X156699000Y-97205078D01*
X146177000Y-97205078D01*
X146177000Y-92125078D01*
X150349000Y-92125078D01*
X150349000Y-92278922D01*
X150379013Y-92429809D01*
X150437887Y-92571942D01*
X150523358Y-92699859D01*
X150632141Y-92808642D01*
X150674582Y-92837000D01*
X150632141Y-92865358D01*
X150523358Y-92974141D01*
X150437887Y-93102058D01*
X150379013Y-93244191D01*
X150349000Y-93395078D01*
X150349000Y-93548922D01*
X150379013Y-93699809D01*
X150437887Y-93841942D01*
X150523358Y-93969859D01*
X150632141Y-94078642D01*
X150760058Y-94164113D01*
X150902191Y-94222987D01*
X151053078Y-94253000D01*
X151206922Y-94253000D01*
X151357809Y-94222987D01*
X151499942Y-94164113D01*
X151627859Y-94078642D01*
X151736642Y-93969859D01*
X151822113Y-93841942D01*
X151880987Y-93699809D01*
X151911000Y-93548922D01*
X151911000Y-93395078D01*
X151880987Y-93244191D01*
X151822113Y-93102058D01*
X151736642Y-92974141D01*
X151627859Y-92865358D01*
X151585418Y-92837000D01*
X151627859Y-92808642D01*
X151736642Y-92699859D01*
X151822113Y-92571942D01*
X151880987Y-92429809D01*
X151911000Y-92278922D01*
X151911000Y-92125078D01*
X151880987Y-91974191D01*
X151822113Y-91832058D01*
X151736642Y-91704141D01*
X151627859Y-91595358D01*
X151499942Y-91509887D01*
X151357809Y-91451013D01*
X151206922Y-91421000D01*
X151053078Y-91421000D01*
X150902191Y-91451013D01*
X150760058Y-91509887D01*
X150632141Y-91595358D01*
X150523358Y-91704141D01*
X150437887Y-91832058D01*
X150379013Y-91974191D01*
X150349000Y-92125078D01*
X146177000Y-92125078D01*
X146177000Y-90114315D01*
X159413000Y-90114315D01*
X159413000Y-90534085D01*
X159494893Y-90945790D01*
X159655532Y-91333607D01*
X159888744Y-91682633D01*
X160185567Y-91979456D01*
X160534593Y-92212668D01*
X160922410Y-92373307D01*
X161334115Y-92455200D01*
X161753885Y-92455200D01*
X162165590Y-92373307D01*
X162553407Y-92212668D01*
X162902433Y-91979456D01*
X163199256Y-91682633D01*
X163432468Y-91333607D01*
X163593107Y-90945790D01*
X163675000Y-90534085D01*
X163675000Y-90114315D01*
X163593107Y-89702610D01*
X163432468Y-89314793D01*
X163199256Y-88965767D01*
X162902433Y-88668944D01*
X162553407Y-88435732D01*
X162165590Y-88275093D01*
X161753885Y-88193200D01*
X161334115Y-88193200D01*
X160922410Y-88275093D01*
X160534593Y-88435732D01*
X160185567Y-88668944D01*
X159888744Y-88965767D01*
X159655532Y-89314793D01*
X159494893Y-89702610D01*
X159413000Y-90114315D01*
X146177000Y-90114315D01*
X146177000Y-87782000D01*
X166604145Y-87782000D01*
X166742106Y-87795527D01*
X166855713Y-87829827D01*
X166960491Y-87885539D01*
X167052455Y-87960543D01*
X167128099Y-88051982D01*
X167184542Y-88156371D01*
X167219633Y-88269732D01*
X167234001Y-88406434D01*
X167234000Y-117328146D01*
X167220473Y-117466105D01*
X167186174Y-117579709D01*
X167130461Y-117684492D01*
X167055459Y-117776453D01*
X166964020Y-117852098D01*
X166859628Y-117908543D01*
X166746269Y-117943633D01*
X166609576Y-117958000D01*
X129559854Y-117958000D01*
X129421895Y-117944473D01*
X129308291Y-117910174D01*
X129203508Y-117854461D01*
X129111547Y-117779459D01*
X129035902Y-117688020D01*
X128979457Y-117583628D01*
X128944367Y-117470269D01*
X128930000Y-117333576D01*
X128930000Y-116187186D01*
X129391000Y-116187186D01*
X129391000Y-117068815D01*
X129403026Y-117190904D01*
X129450543Y-117347548D01*
X129527707Y-117491912D01*
X129631553Y-117618448D01*
X129758089Y-117722294D01*
X129902453Y-117799458D01*
X130059097Y-117846975D01*
X130222000Y-117863020D01*
X130384904Y-117846975D01*
X130541548Y-117799458D01*
X130685912Y-117722294D01*
X130812448Y-117618448D01*
X130916294Y-117491912D01*
X130993458Y-117347548D01*
X131040975Y-117190904D01*
X131053000Y-117068815D01*
X131053000Y-116187186D01*
X138041000Y-116187186D01*
X138041000Y-117068815D01*
X138053026Y-117190904D01*
X138100543Y-117347548D01*
X138177707Y-117491912D01*
X138281553Y-117618448D01*
X138408089Y-117722294D01*
X138552453Y-117799458D01*
X138709097Y-117846975D01*
X138872000Y-117863020D01*
X139034904Y-117846975D01*
X139191548Y-117799458D01*
X139335912Y-117722294D01*
X139462448Y-117618448D01*
X139566294Y-117491912D01*
X139643458Y-117347548D01*
X139690975Y-117190904D01*
X139703000Y-117068815D01*
X139703000Y-116187185D01*
X139690975Y-116065096D01*
X139643458Y-115908452D01*
X139566294Y-115764088D01*
X139462448Y-115637552D01*
X139335911Y-115533706D01*
X139191547Y-115456542D01*
X139034903Y-115409025D01*
X138872000Y-115392980D01*
X138709096Y-115409025D01*
X138552452Y-115456542D01*
X138408088Y-115533706D01*
X138281552Y-115637552D01*
X138177706Y-115764089D01*
X138100542Y-115908453D01*
X138053025Y-116065097D01*
X138041000Y-116187186D01*
X131053000Y-116187186D01*
X131053000Y-116187185D01*
X131040975Y-116065096D01*
X130993458Y-115908452D01*
X130916294Y-115764088D01*
X130812448Y-115637552D01*
X130685911Y-115533706D01*
X130541547Y-115456542D01*
X130384903Y-115409025D01*
X130222000Y-115392980D01*
X130059096Y-115409025D01*
X129902452Y-115456542D01*
X129758088Y-115533706D01*
X129631552Y-115637552D01*
X129527706Y-115764089D01*
X129450542Y-115908453D01*
X129403025Y-116065097D01*
X129391000Y-116187186D01*
X128930000Y-116187186D01*
X128930000Y-115104315D01*
X159413000Y-115104315D01*
X159413000Y-115524085D01*
X159494893Y-115935790D01*
X159655532Y-116323607D01*
X159888744Y-116672633D01*
X160185567Y-116969456D01*
X160534593Y-117202668D01*
X160922410Y-117363307D01*
X161334115Y-117445200D01*
X161753885Y-117445200D01*
X162165590Y-117363307D01*
X162553407Y-117202668D01*
X162902433Y-116969456D01*
X163199256Y-116672633D01*
X163432468Y-116323607D01*
X163593107Y-115935790D01*
X163675000Y-115524085D01*
X163675000Y-115104315D01*
X163593107Y-114692610D01*
X163432468Y-114304793D01*
X163199256Y-113955767D01*
X162902433Y-113658944D01*
X162553407Y-113425732D01*
X162165590Y-113265093D01*
X161753885Y-113183200D01*
X161334115Y-113183200D01*
X160922410Y-113265093D01*
X160534593Y-113425732D01*
X160185567Y-113658944D01*
X159888744Y-113955767D01*
X159655532Y-114304793D01*
X159494893Y-114692610D01*
X159413000Y-115104315D01*
X128930000Y-115104315D01*
X128930000Y-112457186D01*
X129391000Y-112457186D01*
X129391001Y-114038815D01*
X129403026Y-114160904D01*
X129450543Y-114317548D01*
X129527707Y-114461912D01*
X129631553Y-114588448D01*
X129758089Y-114692294D01*
X129902453Y-114769458D01*
X130059097Y-114816975D01*
X130222000Y-114833020D01*
X130384904Y-114816975D01*
X130541548Y-114769458D01*
X130685912Y-114692294D01*
X130812448Y-114588448D01*
X130916294Y-114461912D01*
X130993458Y-114317548D01*
X131040975Y-114160904D01*
X131044574Y-114124364D01*
X131106015Y-114185805D01*
X131225742Y-114265804D01*
X131358775Y-114320908D01*
X131500003Y-114349000D01*
X131643997Y-114349000D01*
X131785225Y-114320908D01*
X131918258Y-114265804D01*
X131997000Y-114213190D01*
X132075742Y-114265804D01*
X132208775Y-114320908D01*
X132350003Y-114349000D01*
X132493997Y-114349000D01*
X132635225Y-114320908D01*
X132768258Y-114265804D01*
X132847000Y-114213190D01*
X132925742Y-114265804D01*
X133058775Y-114320908D01*
X133200003Y-114349000D01*
X133343997Y-114349000D01*
X133485225Y-114320908D01*
X133618258Y-114265804D01*
X133697000Y-114213190D01*
X133775742Y-114265804D01*
X133908775Y-114320908D01*
X134050003Y-114349000D01*
X134193997Y-114349000D01*
X134335225Y-114320908D01*
X134468258Y-114265804D01*
X134547000Y-114213190D01*
X134625742Y-114265804D01*
X134758775Y-114320908D01*
X134900003Y-114349000D01*
X135043997Y-114349000D01*
X135185225Y-114320908D01*
X135318258Y-114265804D01*
X135397000Y-114213190D01*
X135475742Y-114265804D01*
X135608775Y-114320908D01*
X135750003Y-114349000D01*
X135893997Y-114349000D01*
X136035225Y-114320908D01*
X136168258Y-114265804D01*
X136247000Y-114213190D01*
X136325742Y-114265804D01*
X136458775Y-114320908D01*
X136600003Y-114349000D01*
X136743997Y-114349000D01*
X136885225Y-114320908D01*
X137018258Y-114265804D01*
X137097000Y-114213190D01*
X137175742Y-114265804D01*
X137308775Y-114320908D01*
X137450003Y-114349000D01*
X137593997Y-114349000D01*
X137735225Y-114320908D01*
X137868258Y-114265804D01*
X137987985Y-114185805D01*
X138049427Y-114124363D01*
X138053026Y-114160904D01*
X138100543Y-114317548D01*
X138177707Y-114461912D01*
X138281553Y-114588448D01*
X138408089Y-114692294D01*
X138552453Y-114769458D01*
X138709097Y-114816975D01*
X138872000Y-114833020D01*
X139034904Y-114816975D01*
X139191548Y-114769458D01*
X139335912Y-114692294D01*
X139462448Y-114588448D01*
X139566294Y-114461912D01*
X139643458Y-114317548D01*
X139690975Y-114160904D01*
X139703000Y-114038815D01*
X139703000Y-112457185D01*
X139690975Y-112335096D01*
X139643458Y-112178452D01*
X139566294Y-112034088D01*
X139462448Y-111907552D01*
X139335911Y-111803706D01*
X139191547Y-111726542D01*
X139034903Y-111679025D01*
X138872000Y-111662980D01*
X138709096Y-111679025D01*
X138552452Y-111726542D01*
X138408088Y-111803706D01*
X138281552Y-111907552D01*
X138203381Y-112002804D01*
X138169804Y-111921742D01*
X138089805Y-111802015D01*
X137987985Y-111700195D01*
X137868258Y-111620196D01*
X137735225Y-111565092D01*
X137593997Y-111537000D01*
X137450003Y-111537000D01*
X137308775Y-111565092D01*
X137175742Y-111620196D01*
X137097000Y-111672810D01*
X137018258Y-111620196D01*
X136885225Y-111565092D01*
X136743997Y-111537000D01*
X136600003Y-111537000D01*
X136458775Y-111565092D01*
X136325742Y-111620196D01*
X136247000Y-111672810D01*
X136168258Y-111620196D01*
X136035225Y-111565092D01*
X135893997Y-111537000D01*
X135750003Y-111537000D01*
X135608775Y-111565092D01*
X135475742Y-111620196D01*
X135397000Y-111672810D01*
X135325270Y-111624881D01*
X135339822Y-111621987D01*
X135481955Y-111563113D01*
X135609872Y-111477642D01*
X135718655Y-111368859D01*
X135804126Y-111240942D01*
X135863000Y-111098809D01*
X135893013Y-110947922D01*
X135893013Y-110794078D01*
X135863000Y-110643191D01*
X135804126Y-110501058D01*
X135718655Y-110373141D01*
X135609872Y-110264358D01*
X135481955Y-110178887D01*
X135434133Y-110159078D01*
X145777000Y-110159078D01*
X145777000Y-110312922D01*
X145807013Y-110463809D01*
X145865887Y-110605942D01*
X145951358Y-110733859D01*
X146060141Y-110842642D01*
X146188058Y-110928113D01*
X146330191Y-110986987D01*
X146481078Y-111017000D01*
X146634922Y-111017000D01*
X146785809Y-110986987D01*
X146927942Y-110928113D01*
X147055859Y-110842642D01*
X147164642Y-110733859D01*
X147250113Y-110605942D01*
X147308987Y-110463809D01*
X147339000Y-110312922D01*
X147339000Y-110159078D01*
X147308987Y-110008191D01*
X147250113Y-109866058D01*
X147164642Y-109738141D01*
X147055859Y-109629358D01*
X146927942Y-109543887D01*
X146785809Y-109485013D01*
X146634922Y-109455000D01*
X146481078Y-109455000D01*
X146330191Y-109485013D01*
X146188058Y-109543887D01*
X146060141Y-109629358D01*
X145951358Y-109738141D01*
X145865887Y-109866058D01*
X145807013Y-110008191D01*
X145777000Y-110159078D01*
X135434133Y-110159078D01*
X135339822Y-110120013D01*
X135188935Y-110090000D01*
X135035091Y-110090000D01*
X134884204Y-110120013D01*
X134742071Y-110178887D01*
X134614154Y-110264358D01*
X134612007Y-110266506D01*
X134609859Y-110264358D01*
X134481942Y-110178887D01*
X134339809Y-110120013D01*
X134188922Y-110090000D01*
X134035078Y-110090000D01*
X133884191Y-110120013D01*
X133742058Y-110178887D01*
X133614141Y-110264358D01*
X133505358Y-110373141D01*
X133419887Y-110501058D01*
X133361013Y-110643191D01*
X133331000Y-110794078D01*
X133331000Y-110947922D01*
X133361013Y-111098809D01*
X133419887Y-111240942D01*
X133505358Y-111368859D01*
X133614141Y-111477642D01*
X133742058Y-111563113D01*
X133827805Y-111598631D01*
X133775742Y-111620196D01*
X133697000Y-111672810D01*
X133618258Y-111620196D01*
X133485225Y-111565092D01*
X133343997Y-111537000D01*
X133200003Y-111537000D01*
X133058775Y-111565092D01*
X132925742Y-111620196D01*
X132847000Y-111672810D01*
X132768258Y-111620196D01*
X132635225Y-111565092D01*
X132493997Y-111537000D01*
X132350003Y-111537000D01*
X132208775Y-111565092D01*
X132075742Y-111620196D01*
X131997000Y-111672810D01*
X131918258Y-111620196D01*
X131785225Y-111565092D01*
X131643997Y-111537000D01*
X131500003Y-111537000D01*
X131358775Y-111565092D01*
X131225742Y-111620196D01*
X131106015Y-111700195D01*
X131004195Y-111802015D01*
X130924196Y-111921742D01*
X130890619Y-112002803D01*
X130812448Y-111907552D01*
X130685911Y-111803706D01*
X130541547Y-111726542D01*
X130384903Y-111679025D01*
X130222000Y-111662980D01*
X130059096Y-111679025D01*
X129902452Y-111726542D01*
X129758088Y-111803706D01*
X129631552Y-111907552D01*
X129527706Y-112034089D01*
X129450542Y-112178453D01*
X129403025Y-112335097D01*
X129391000Y-112457186D01*
X128930000Y-112457186D01*
X128930000Y-108315078D01*
X142155000Y-108315078D01*
X142155000Y-108468922D01*
X142185013Y-108619809D01*
X142243887Y-108761942D01*
X142329358Y-108889859D01*
X142438141Y-108998642D01*
X142566058Y-109084113D01*
X142708191Y-109142987D01*
X142859078Y-109173000D01*
X143012922Y-109173000D01*
X143163809Y-109142987D01*
X143305942Y-109084113D01*
X143433859Y-108998642D01*
X143542642Y-108889859D01*
X143628113Y-108761942D01*
X143686987Y-108619809D01*
X143717000Y-108468922D01*
X143717000Y-108315078D01*
X143686987Y-108164191D01*
X143671615Y-108127078D01*
X147047000Y-108127078D01*
X147047000Y-108280922D01*
X147077013Y-108431809D01*
X147135887Y-108573942D01*
X147221358Y-108701859D01*
X147330141Y-108810642D01*
X147458058Y-108896113D01*
X147600191Y-108954987D01*
X147751078Y-108985000D01*
X147904922Y-108985000D01*
X148055809Y-108954987D01*
X148197942Y-108896113D01*
X148325859Y-108810642D01*
X148434642Y-108701859D01*
X148520113Y-108573942D01*
X148578987Y-108431809D01*
X148609000Y-108280922D01*
X148609000Y-108127078D01*
X148578987Y-107976191D01*
X148520113Y-107834058D01*
X148434642Y-107706141D01*
X148347579Y-107619078D01*
X156699000Y-107619078D01*
X156699000Y-107772922D01*
X156729013Y-107923809D01*
X156787887Y-108065942D01*
X156873358Y-108193859D01*
X156982141Y-108302642D01*
X157110058Y-108388113D01*
X157252191Y-108446987D01*
X157403078Y-108477000D01*
X157556922Y-108477000D01*
X157707809Y-108446987D01*
X157849942Y-108388113D01*
X157977859Y-108302642D01*
X158086642Y-108193859D01*
X158172113Y-108065942D01*
X158230987Y-107923809D01*
X158261000Y-107772922D01*
X158261000Y-107619078D01*
X158230987Y-107468191D01*
X158172113Y-107326058D01*
X158086642Y-107198141D01*
X157977859Y-107089358D01*
X157849942Y-107003887D01*
X157707809Y-106945013D01*
X157556922Y-106915000D01*
X157403078Y-106915000D01*
X157252191Y-106945013D01*
X157110058Y-107003887D01*
X156982141Y-107089358D01*
X156873358Y-107198141D01*
X156787887Y-107326058D01*
X156729013Y-107468191D01*
X156699000Y-107619078D01*
X148347579Y-107619078D01*
X148325859Y-107597358D01*
X148197942Y-107511887D01*
X148055809Y-107453013D01*
X147904922Y-107423000D01*
X147751078Y-107423000D01*
X147600191Y-107453013D01*
X147458058Y-107511887D01*
X147330141Y-107597358D01*
X147221358Y-107706141D01*
X147135887Y-107834058D01*
X147077013Y-107976191D01*
X147047000Y-108127078D01*
X143671615Y-108127078D01*
X143628113Y-108022058D01*
X143542642Y-107894141D01*
X143433859Y-107785358D01*
X143305942Y-107699887D01*
X143163809Y-107641013D01*
X143012922Y-107611000D01*
X142859078Y-107611000D01*
X142708191Y-107641013D01*
X142566058Y-107699887D01*
X142438141Y-107785358D01*
X142329358Y-107894141D01*
X142243887Y-108022058D01*
X142185013Y-108164191D01*
X142155000Y-108315078D01*
X128930000Y-108315078D01*
X128930000Y-105587078D01*
X131299000Y-105587078D01*
X131299000Y-105740922D01*
X131329013Y-105891809D01*
X131387887Y-106033942D01*
X131473358Y-106161859D01*
X131582141Y-106270642D01*
X131710058Y-106356113D01*
X131852191Y-106414987D01*
X132003078Y-106445000D01*
X132156922Y-106445000D01*
X132307809Y-106414987D01*
X132449942Y-106356113D01*
X132577859Y-106270642D01*
X132686642Y-106161859D01*
X132772113Y-106033942D01*
X132830987Y-105891809D01*
X132861000Y-105740922D01*
X132861000Y-105587078D01*
X132830987Y-105436191D01*
X132772113Y-105294058D01*
X132686642Y-105166141D01*
X132577859Y-105057358D01*
X132449942Y-104971887D01*
X132307809Y-104913013D01*
X132156922Y-104883000D01*
X132003078Y-104883000D01*
X131852191Y-104913013D01*
X131710058Y-104971887D01*
X131582141Y-105057358D01*
X131473358Y-105166141D01*
X131387887Y-105294058D01*
X131329013Y-105436191D01*
X131299000Y-105587078D01*
X128930000Y-105587078D01*
X128930000Y-96951078D01*
X130664000Y-96951078D01*
X130664000Y-97104922D01*
X130694013Y-97255809D01*
X130752887Y-97397942D01*
X130838358Y-97525859D01*
X130947141Y-97634642D01*
X131075058Y-97720113D01*
X131217191Y-97778987D01*
X131368078Y-97809000D01*
X131521922Y-97809000D01*
X131672809Y-97778987D01*
X131814942Y-97720113D01*
X131942859Y-97634642D01*
X132051642Y-97525859D01*
X132137113Y-97397942D01*
X132195987Y-97255809D01*
X132226000Y-97104922D01*
X132226000Y-96951078D01*
X132195987Y-96800191D01*
X132137113Y-96658058D01*
X132051642Y-96530141D01*
X131942859Y-96421358D01*
X131814942Y-96335887D01*
X131672809Y-96277013D01*
X131521922Y-96247000D01*
X131368078Y-96247000D01*
X131217191Y-96277013D01*
X131075058Y-96335887D01*
X130947141Y-96421358D01*
X130838358Y-96530141D01*
X130752887Y-96658058D01*
X130694013Y-96800191D01*
X130664000Y-96951078D01*
X128930000Y-96951078D01*
X128930000Y-88411855D01*
X128943527Y-88273894D01*
X128977827Y-88160287D01*
X129033539Y-88055509D01*
X129108543Y-87963545D01*
X129199982Y-87887901D01*
X129304371Y-87831458D01*
X129417732Y-87796367D01*
X129554424Y-87782000D01*
X135509000Y-87782000D01*
X135509000Y-94532500D01*
G37*
%TD.AperFunction*%
M02*
