%TF.GenerationSoftware,KiCad,Pcbnew,(5.1.9)-1*%
%TF.CreationDate,2021-02-06T23:27:04-06:00*%
%TF.ProjectId,USB2CAN,55534232-4341-44e2-9e6b-696361645f70,rev?*%
%TF.SameCoordinates,Original*%
%TF.FileFunction,Copper,L4,Bot*%
%TF.FilePolarity,Positive*%
%FSLAX46Y46*%
G04 Gerber Fmt 4.6, Leading zero omitted, Abs format (unit mm)*
G04 Created by KiCad (PCBNEW (5.1.9)-1) date 2021-02-06 23:27:04*
%MOMM*%
%LPD*%
G01*
G04 APERTURE LIST*
%TA.AperFunction,ComponentPad*%
%ADD10C,3.500000*%
%TD*%
%TA.AperFunction,ComponentPad*%
%ADD11C,2.000000*%
%TD*%
%TA.AperFunction,ComponentPad*%
%ADD12O,0.900000X1.700000*%
%TD*%
%TA.AperFunction,ComponentPad*%
%ADD13O,0.900000X2.400000*%
%TD*%
%TA.AperFunction,ComponentPad*%
%ADD14C,0.700000*%
%TD*%
%TA.AperFunction,ViaPad*%
%ADD15C,0.800000*%
%TD*%
%TA.AperFunction,Conductor*%
%ADD16C,0.762000*%
%TD*%
%TA.AperFunction,Conductor*%
%ADD17C,0.152400*%
%TD*%
%TA.AperFunction,Conductor*%
%ADD18C,0.254000*%
%TD*%
%TA.AperFunction,Conductor*%
%ADD19C,0.100000*%
%TD*%
G04 APERTURE END LIST*
D10*
X161544000Y-90324200D03*
X161544000Y-115314200D03*
D11*
X160124000Y-108299200D03*
X162964000Y-106929200D03*
X160124000Y-105559200D03*
X162964000Y-104189200D03*
X160124000Y-102819200D03*
X162964000Y-101449200D03*
X160124000Y-100079200D03*
X162964000Y-98709200D03*
X160124000Y-97339200D03*
D12*
X138872000Y-116628000D03*
X130222000Y-116628000D03*
D13*
X138872000Y-113248000D03*
X130222000Y-113248000D03*
D14*
X134972000Y-113618000D03*
X137522000Y-113618000D03*
X136672000Y-113618000D03*
X135822000Y-113618000D03*
X131572000Y-113618000D03*
X133272000Y-113618000D03*
X134122000Y-113618000D03*
X132422000Y-113618000D03*
X137522000Y-112268000D03*
X136672000Y-112268000D03*
X135822000Y-112268000D03*
X134972000Y-112268000D03*
X134122000Y-112268000D03*
X133272000Y-112268000D03*
X132422000Y-112268000D03*
X131572000Y-112268000D03*
D15*
X141986000Y-95250000D03*
X145034000Y-95250000D03*
X145034000Y-88138000D03*
X136652000Y-88138000D03*
X139700000Y-95250000D03*
X140843000Y-88138000D03*
X145034000Y-91567000D03*
X136652000Y-91567000D03*
X131445000Y-97028000D03*
X132080000Y-105664000D03*
X136685653Y-95216347D03*
X142936000Y-108392000D03*
X151130000Y-93472000D03*
X151130000Y-92202000D03*
X139479653Y-98899347D03*
X133858000Y-93345000D03*
X133985000Y-105664000D03*
X143106810Y-107188000D03*
X157480000Y-98298000D03*
X157480000Y-97282000D03*
X157480000Y-107696000D03*
X153416000Y-92202000D03*
X153416000Y-93472000D03*
X146304000Y-117602000D03*
X147828000Y-108204000D03*
X135572500Y-95313500D03*
X146558000Y-110236000D03*
X145711570Y-102957784D03*
X135112013Y-110871000D03*
X134112000Y-110871000D03*
D16*
X132422000Y-112268000D02*
X132422000Y-113618000D01*
X136672000Y-112268000D02*
X136672000Y-113618000D01*
X132422000Y-114112974D02*
X133371026Y-115062000D01*
X132422000Y-113618000D02*
X132422000Y-114112974D01*
X133371026Y-115062000D02*
X136652000Y-115062000D01*
X154432000Y-115062000D02*
X157480000Y-112014000D01*
X136652000Y-115062000D02*
X154432000Y-115062000D01*
X157480000Y-112014000D02*
X157480000Y-108966000D01*
X157480000Y-108966000D02*
X157480000Y-98298000D01*
X136672000Y-115042000D02*
X136652000Y-115062000D01*
X136672000Y-113618000D02*
X136672000Y-115042000D01*
X157480000Y-98298000D02*
X157480000Y-97282000D01*
D17*
X147828000Y-108204000D02*
X146812000Y-108204000D01*
X135572500Y-96964500D02*
X135572500Y-95313500D01*
X146812000Y-108204000D02*
X135572500Y-96964500D01*
X147828000Y-110236000D02*
X146558000Y-110236000D01*
X148590000Y-109474000D02*
X147828000Y-110236000D01*
X148590000Y-107442000D02*
X148590000Y-109474000D01*
X145711570Y-104563570D02*
X148590000Y-107442000D01*
X145711570Y-102957784D02*
X145711570Y-104563570D01*
X134122000Y-112344778D02*
X134122000Y-112268000D01*
X134972000Y-113618000D02*
X134972000Y-113194778D01*
X134972000Y-113194778D02*
X134122000Y-112344778D01*
X134122000Y-111861013D02*
X135112013Y-110871000D01*
X134122000Y-112268000D02*
X134122000Y-111861013D01*
D18*
X166742106Y-87795527D02*
X166855713Y-87829827D01*
X166960491Y-87885539D01*
X167052455Y-87960543D01*
X167128099Y-88051982D01*
X167184542Y-88156371D01*
X167219633Y-88269732D01*
X167234001Y-88406434D01*
X167234000Y-117328146D01*
X167220473Y-117466105D01*
X167186174Y-117579709D01*
X167130461Y-117684492D01*
X167055459Y-117776453D01*
X166964020Y-117852098D01*
X166859628Y-117908543D01*
X166746269Y-117943633D01*
X166609576Y-117958000D01*
X147001888Y-117958000D01*
X147054987Y-117829809D01*
X147085000Y-117678922D01*
X147085000Y-117525078D01*
X147054987Y-117374191D01*
X146996113Y-117232058D01*
X146910642Y-117104141D01*
X146801859Y-116995358D01*
X146673942Y-116909887D01*
X146531809Y-116851013D01*
X146380922Y-116821000D01*
X146227078Y-116821000D01*
X146076191Y-116851013D01*
X145934058Y-116909887D01*
X145806141Y-116995358D01*
X145697358Y-117104141D01*
X145611887Y-117232058D01*
X145553013Y-117374191D01*
X145523000Y-117525078D01*
X145523000Y-117678922D01*
X145553013Y-117829809D01*
X145606112Y-117958000D01*
X129559854Y-117958000D01*
X129421895Y-117944473D01*
X129308291Y-117910174D01*
X129203508Y-117854461D01*
X129111547Y-117779459D01*
X129035902Y-117688020D01*
X128979457Y-117583628D01*
X128944367Y-117470269D01*
X128930000Y-117333576D01*
X128930000Y-114112974D01*
X131656314Y-114112974D01*
X131660000Y-114150397D01*
X131660000Y-114150400D01*
X131671026Y-114262352D01*
X131714598Y-114405989D01*
X131785355Y-114538366D01*
X131880579Y-114654396D01*
X131909649Y-114678253D01*
X132805747Y-115574351D01*
X132829604Y-115603422D01*
X132945634Y-115698645D01*
X133078011Y-115769402D01*
X133221648Y-115812974D01*
X133333600Y-115824000D01*
X133333602Y-115824000D01*
X133371025Y-115827686D01*
X133408448Y-115824000D01*
X136614577Y-115824000D01*
X136652000Y-115827686D01*
X136689423Y-115824000D01*
X154394577Y-115824000D01*
X154432000Y-115827686D01*
X154469423Y-115824000D01*
X154469426Y-115824000D01*
X154581378Y-115812974D01*
X154725015Y-115769402D01*
X154857392Y-115698645D01*
X154973422Y-115603422D01*
X154997284Y-115574346D01*
X157992353Y-112579278D01*
X158021422Y-112555422D01*
X158082314Y-112481225D01*
X158116645Y-112439393D01*
X158169773Y-112339997D01*
X158187402Y-112307015D01*
X158230974Y-112163378D01*
X158242000Y-112051426D01*
X158242000Y-112051423D01*
X158245686Y-112014000D01*
X158242000Y-111976577D01*
X158242000Y-107868442D01*
X158261000Y-107772922D01*
X158261000Y-107619078D01*
X158242000Y-107523558D01*
X158242000Y-105423183D01*
X158743000Y-105423183D01*
X158743000Y-105695217D01*
X158796071Y-105962023D01*
X158900174Y-106213349D01*
X159051307Y-106439536D01*
X159243664Y-106631893D01*
X159469851Y-106783026D01*
X159721177Y-106887129D01*
X159932682Y-106929200D01*
X159721177Y-106971271D01*
X159469851Y-107075374D01*
X159243664Y-107226507D01*
X159051307Y-107418864D01*
X158900174Y-107645051D01*
X158796071Y-107896377D01*
X158743000Y-108163183D01*
X158743000Y-108435217D01*
X158796071Y-108702023D01*
X158900174Y-108953349D01*
X159051307Y-109179536D01*
X159243664Y-109371893D01*
X159469851Y-109523026D01*
X159721177Y-109627129D01*
X159987983Y-109680200D01*
X160260017Y-109680200D01*
X160526823Y-109627129D01*
X160778149Y-109523026D01*
X161004336Y-109371893D01*
X161196693Y-109179536D01*
X161347826Y-108953349D01*
X161451929Y-108702023D01*
X161505000Y-108435217D01*
X161505000Y-108163183D01*
X161451929Y-107896377D01*
X161347826Y-107645051D01*
X161196693Y-107418864D01*
X161004336Y-107226507D01*
X160778149Y-107075374D01*
X160526823Y-106971271D01*
X160315318Y-106929200D01*
X160526823Y-106887129D01*
X160778149Y-106783026D01*
X161004336Y-106631893D01*
X161196693Y-106439536D01*
X161347826Y-106213349D01*
X161451929Y-105962023D01*
X161505000Y-105695217D01*
X161505000Y-105423183D01*
X161451929Y-105156377D01*
X161347826Y-104905051D01*
X161196693Y-104678864D01*
X161004336Y-104486507D01*
X160778149Y-104335374D01*
X160526823Y-104231271D01*
X160260017Y-104178200D01*
X159987983Y-104178200D01*
X159721177Y-104231271D01*
X159469851Y-104335374D01*
X159243664Y-104486507D01*
X159051307Y-104678864D01*
X158900174Y-104905051D01*
X158796071Y-105156377D01*
X158743000Y-105423183D01*
X158242000Y-105423183D01*
X158242000Y-98470442D01*
X158261000Y-98374922D01*
X158261000Y-98221078D01*
X158242000Y-98125558D01*
X158242000Y-97454442D01*
X158261000Y-97358922D01*
X158261000Y-97205078D01*
X158260624Y-97203183D01*
X158743000Y-97203183D01*
X158743000Y-97475217D01*
X158796071Y-97742023D01*
X158900174Y-97993349D01*
X159051307Y-98219536D01*
X159243664Y-98411893D01*
X159469851Y-98563026D01*
X159721177Y-98667129D01*
X159932682Y-98709200D01*
X159721177Y-98751271D01*
X159469851Y-98855374D01*
X159243664Y-99006507D01*
X159051307Y-99198864D01*
X158900174Y-99425051D01*
X158796071Y-99676377D01*
X158743000Y-99943183D01*
X158743000Y-100215217D01*
X158796071Y-100482023D01*
X158900174Y-100733349D01*
X159051307Y-100959536D01*
X159243664Y-101151893D01*
X159469851Y-101303026D01*
X159721177Y-101407129D01*
X159987983Y-101460200D01*
X160260017Y-101460200D01*
X160526823Y-101407129D01*
X160778149Y-101303026D01*
X161004336Y-101151893D01*
X161196693Y-100959536D01*
X161347826Y-100733349D01*
X161451929Y-100482023D01*
X161505000Y-100215217D01*
X161505000Y-99943183D01*
X161451929Y-99676377D01*
X161347826Y-99425051D01*
X161196693Y-99198864D01*
X161004336Y-99006507D01*
X160778149Y-98855374D01*
X160526823Y-98751271D01*
X160315318Y-98709200D01*
X160526823Y-98667129D01*
X160753627Y-98573183D01*
X161583000Y-98573183D01*
X161583000Y-98845217D01*
X161636071Y-99112023D01*
X161740174Y-99363349D01*
X161891307Y-99589536D01*
X162083664Y-99781893D01*
X162309851Y-99933026D01*
X162561177Y-100037129D01*
X162772682Y-100079200D01*
X162561177Y-100121271D01*
X162309851Y-100225374D01*
X162083664Y-100376507D01*
X161891307Y-100568864D01*
X161740174Y-100795051D01*
X161636071Y-101046377D01*
X161583000Y-101313183D01*
X161583000Y-101585217D01*
X161636071Y-101852023D01*
X161740174Y-102103349D01*
X161891307Y-102329536D01*
X162083664Y-102521893D01*
X162309851Y-102673026D01*
X162561177Y-102777129D01*
X162772682Y-102819200D01*
X162561177Y-102861271D01*
X162309851Y-102965374D01*
X162083664Y-103116507D01*
X161891307Y-103308864D01*
X161740174Y-103535051D01*
X161636071Y-103786377D01*
X161583000Y-104053183D01*
X161583000Y-104325217D01*
X161636071Y-104592023D01*
X161740174Y-104843349D01*
X161891307Y-105069536D01*
X162083664Y-105261893D01*
X162309851Y-105413026D01*
X162561177Y-105517129D01*
X162772682Y-105559200D01*
X162561177Y-105601271D01*
X162309851Y-105705374D01*
X162083664Y-105856507D01*
X161891307Y-106048864D01*
X161740174Y-106275051D01*
X161636071Y-106526377D01*
X161583000Y-106793183D01*
X161583000Y-107065217D01*
X161636071Y-107332023D01*
X161740174Y-107583349D01*
X161891307Y-107809536D01*
X162083664Y-108001893D01*
X162309851Y-108153026D01*
X162561177Y-108257129D01*
X162827983Y-108310200D01*
X163100017Y-108310200D01*
X163366823Y-108257129D01*
X163618149Y-108153026D01*
X163844336Y-108001893D01*
X164036693Y-107809536D01*
X164187826Y-107583349D01*
X164291929Y-107332023D01*
X164345000Y-107065217D01*
X164345000Y-106793183D01*
X164291929Y-106526377D01*
X164187826Y-106275051D01*
X164036693Y-106048864D01*
X163844336Y-105856507D01*
X163618149Y-105705374D01*
X163366823Y-105601271D01*
X163155318Y-105559200D01*
X163366823Y-105517129D01*
X163618149Y-105413026D01*
X163844336Y-105261893D01*
X164036693Y-105069536D01*
X164187826Y-104843349D01*
X164291929Y-104592023D01*
X164345000Y-104325217D01*
X164345000Y-104053183D01*
X164291929Y-103786377D01*
X164187826Y-103535051D01*
X164036693Y-103308864D01*
X163844336Y-103116507D01*
X163618149Y-102965374D01*
X163366823Y-102861271D01*
X163155318Y-102819200D01*
X163366823Y-102777129D01*
X163618149Y-102673026D01*
X163844336Y-102521893D01*
X164036693Y-102329536D01*
X164187826Y-102103349D01*
X164291929Y-101852023D01*
X164345000Y-101585217D01*
X164345000Y-101313183D01*
X164291929Y-101046377D01*
X164187826Y-100795051D01*
X164036693Y-100568864D01*
X163844336Y-100376507D01*
X163618149Y-100225374D01*
X163366823Y-100121271D01*
X163155318Y-100079200D01*
X163366823Y-100037129D01*
X163618149Y-99933026D01*
X163844336Y-99781893D01*
X164036693Y-99589536D01*
X164187826Y-99363349D01*
X164291929Y-99112023D01*
X164345000Y-98845217D01*
X164345000Y-98573183D01*
X164291929Y-98306377D01*
X164187826Y-98055051D01*
X164036693Y-97828864D01*
X163844336Y-97636507D01*
X163618149Y-97485374D01*
X163366823Y-97381271D01*
X163100017Y-97328200D01*
X162827983Y-97328200D01*
X162561177Y-97381271D01*
X162309851Y-97485374D01*
X162083664Y-97636507D01*
X161891307Y-97828864D01*
X161740174Y-98055051D01*
X161636071Y-98306377D01*
X161583000Y-98573183D01*
X160753627Y-98573183D01*
X160778149Y-98563026D01*
X161004336Y-98411893D01*
X161196693Y-98219536D01*
X161347826Y-97993349D01*
X161451929Y-97742023D01*
X161505000Y-97475217D01*
X161505000Y-97203183D01*
X161451929Y-96936377D01*
X161347826Y-96685051D01*
X161196693Y-96458864D01*
X161004336Y-96266507D01*
X160778149Y-96115374D01*
X160526823Y-96011271D01*
X160260017Y-95958200D01*
X159987983Y-95958200D01*
X159721177Y-96011271D01*
X159469851Y-96115374D01*
X159243664Y-96266507D01*
X159051307Y-96458864D01*
X158900174Y-96685051D01*
X158796071Y-96936377D01*
X158743000Y-97203183D01*
X158260624Y-97203183D01*
X158230987Y-97054191D01*
X158172113Y-96912058D01*
X158086642Y-96784141D01*
X157977859Y-96675358D01*
X157849942Y-96589887D01*
X157707809Y-96531013D01*
X157556922Y-96501000D01*
X157403078Y-96501000D01*
X157252191Y-96531013D01*
X157110058Y-96589887D01*
X156982141Y-96675358D01*
X156873358Y-96784141D01*
X156787887Y-96912058D01*
X156729013Y-97054191D01*
X156699000Y-97205078D01*
X156699000Y-97358922D01*
X156718001Y-97454446D01*
X156718000Y-98125557D01*
X156699000Y-98221078D01*
X156699000Y-98374922D01*
X156718001Y-98470447D01*
X156718000Y-107523557D01*
X156699000Y-107619078D01*
X156699000Y-107772922D01*
X156718000Y-107868443D01*
X156718000Y-109003425D01*
X156718001Y-109003435D01*
X156718000Y-111698369D01*
X154116370Y-114300000D01*
X137434000Y-114300000D01*
X137434000Y-112230574D01*
X137422974Y-112118622D01*
X137379402Y-111974985D01*
X137308645Y-111842608D01*
X137213422Y-111726578D01*
X137097391Y-111631355D01*
X136965014Y-111560598D01*
X136821377Y-111517026D01*
X136672000Y-111502314D01*
X136522622Y-111517026D01*
X136378985Y-111560598D01*
X136246608Y-111631355D01*
X136218941Y-111654061D01*
X136168258Y-111620196D01*
X136035225Y-111565092D01*
X135893997Y-111537000D01*
X135750003Y-111537000D01*
X135608775Y-111565092D01*
X135475742Y-111620196D01*
X135397000Y-111672810D01*
X135325270Y-111624881D01*
X135339822Y-111621987D01*
X135481955Y-111563113D01*
X135609872Y-111477642D01*
X135718655Y-111368859D01*
X135804126Y-111240942D01*
X135863000Y-111098809D01*
X135893013Y-110947922D01*
X135893013Y-110794078D01*
X135863000Y-110643191D01*
X135804126Y-110501058D01*
X135718655Y-110373141D01*
X135609872Y-110264358D01*
X135481955Y-110178887D01*
X135339822Y-110120013D01*
X135188935Y-110090000D01*
X135035091Y-110090000D01*
X134884204Y-110120013D01*
X134742071Y-110178887D01*
X134614154Y-110264358D01*
X134612007Y-110266506D01*
X134609859Y-110264358D01*
X134481942Y-110178887D01*
X134339809Y-110120013D01*
X134188922Y-110090000D01*
X134035078Y-110090000D01*
X133884191Y-110120013D01*
X133742058Y-110178887D01*
X133614141Y-110264358D01*
X133505358Y-110373141D01*
X133419887Y-110501058D01*
X133361013Y-110643191D01*
X133331000Y-110794078D01*
X133331000Y-110947922D01*
X133361013Y-111098809D01*
X133419887Y-111240942D01*
X133505358Y-111368859D01*
X133614141Y-111477642D01*
X133742058Y-111563113D01*
X133766663Y-111573305D01*
X133740013Y-111605778D01*
X133708176Y-111665342D01*
X133697000Y-111672810D01*
X133618258Y-111620196D01*
X133485225Y-111565092D01*
X133343997Y-111537000D01*
X133200003Y-111537000D01*
X133058775Y-111565092D01*
X132925742Y-111620196D01*
X132875059Y-111654061D01*
X132847391Y-111631355D01*
X132715014Y-111560598D01*
X132571377Y-111517026D01*
X132422000Y-111502314D01*
X132272622Y-111517026D01*
X132128985Y-111560598D01*
X131996608Y-111631355D01*
X131880578Y-111726578D01*
X131785355Y-111842609D01*
X131714598Y-111974986D01*
X131671026Y-112118623D01*
X131660000Y-112230575D01*
X131660001Y-113580565D01*
X131660000Y-113580575D01*
X131660000Y-114075551D01*
X131656314Y-114112974D01*
X128930000Y-114112974D01*
X128930000Y-107111078D01*
X142325810Y-107111078D01*
X142325810Y-107264922D01*
X142355823Y-107415809D01*
X142414697Y-107557942D01*
X142500168Y-107685859D01*
X142608951Y-107794642D01*
X142736868Y-107880113D01*
X142879001Y-107938987D01*
X143029888Y-107969000D01*
X143183732Y-107969000D01*
X143334619Y-107938987D01*
X143476752Y-107880113D01*
X143604669Y-107794642D01*
X143713452Y-107685859D01*
X143798923Y-107557942D01*
X143857797Y-107415809D01*
X143887810Y-107264922D01*
X143887810Y-107111078D01*
X143857797Y-106960191D01*
X143798923Y-106818058D01*
X143713452Y-106690141D01*
X143604669Y-106581358D01*
X143476752Y-106495887D01*
X143334619Y-106437013D01*
X143183732Y-106407000D01*
X143029888Y-106407000D01*
X142879001Y-106437013D01*
X142736868Y-106495887D01*
X142608951Y-106581358D01*
X142500168Y-106690141D01*
X142414697Y-106818058D01*
X142355823Y-106960191D01*
X142325810Y-107111078D01*
X128930000Y-107111078D01*
X128930000Y-105587078D01*
X133204000Y-105587078D01*
X133204000Y-105740922D01*
X133234013Y-105891809D01*
X133292887Y-106033942D01*
X133378358Y-106161859D01*
X133487141Y-106270642D01*
X133615058Y-106356113D01*
X133757191Y-106414987D01*
X133908078Y-106445000D01*
X134061922Y-106445000D01*
X134212809Y-106414987D01*
X134354942Y-106356113D01*
X134482859Y-106270642D01*
X134591642Y-106161859D01*
X134677113Y-106033942D01*
X134735987Y-105891809D01*
X134766000Y-105740922D01*
X134766000Y-105587078D01*
X134735987Y-105436191D01*
X134677113Y-105294058D01*
X134591642Y-105166141D01*
X134482859Y-105057358D01*
X134354942Y-104971887D01*
X134212809Y-104913013D01*
X134061922Y-104883000D01*
X133908078Y-104883000D01*
X133757191Y-104913013D01*
X133615058Y-104971887D01*
X133487141Y-105057358D01*
X133378358Y-105166141D01*
X133292887Y-105294058D01*
X133234013Y-105436191D01*
X133204000Y-105587078D01*
X128930000Y-105587078D01*
X128930000Y-95236578D01*
X134791500Y-95236578D01*
X134791500Y-95390422D01*
X134821513Y-95541309D01*
X134880387Y-95683442D01*
X134965858Y-95811359D01*
X135074641Y-95920142D01*
X135115301Y-95947310D01*
X135115300Y-96942050D01*
X135113089Y-96964500D01*
X135115300Y-96986950D01*
X135115300Y-96986959D01*
X135121915Y-97054126D01*
X135148059Y-97140308D01*
X135190513Y-97219735D01*
X135247647Y-97289353D01*
X135265097Y-97303674D01*
X146472830Y-108511408D01*
X146487147Y-108528853D01*
X146504592Y-108543170D01*
X146556763Y-108585987D01*
X146599217Y-108608678D01*
X146636191Y-108628441D01*
X146722373Y-108654585D01*
X146789540Y-108661200D01*
X146789549Y-108661200D01*
X146811999Y-108663411D01*
X146834449Y-108661200D01*
X147194191Y-108661200D01*
X147221358Y-108701859D01*
X147330141Y-108810642D01*
X147458058Y-108896113D01*
X147600191Y-108954987D01*
X147751078Y-108985000D01*
X147904922Y-108985000D01*
X148055809Y-108954987D01*
X148132801Y-108923096D01*
X148132801Y-109284620D01*
X147638623Y-109778800D01*
X147191809Y-109778800D01*
X147164642Y-109738141D01*
X147055859Y-109629358D01*
X146927942Y-109543887D01*
X146785809Y-109485013D01*
X146634922Y-109455000D01*
X146481078Y-109455000D01*
X146330191Y-109485013D01*
X146188058Y-109543887D01*
X146060141Y-109629358D01*
X145951358Y-109738141D01*
X145865887Y-109866058D01*
X145807013Y-110008191D01*
X145777000Y-110159078D01*
X145777000Y-110312922D01*
X145807013Y-110463809D01*
X145865887Y-110605942D01*
X145951358Y-110733859D01*
X146060141Y-110842642D01*
X146188058Y-110928113D01*
X146330191Y-110986987D01*
X146481078Y-111017000D01*
X146634922Y-111017000D01*
X146785809Y-110986987D01*
X146927942Y-110928113D01*
X147055859Y-110842642D01*
X147164642Y-110733859D01*
X147191809Y-110693200D01*
X147805550Y-110693200D01*
X147828000Y-110695411D01*
X147850450Y-110693200D01*
X147850460Y-110693200D01*
X147917627Y-110686585D01*
X148003809Y-110660441D01*
X148083236Y-110617987D01*
X148152853Y-110560853D01*
X148167174Y-110543403D01*
X148897413Y-109813165D01*
X148914853Y-109798853D01*
X148929165Y-109781414D01*
X148929171Y-109781408D01*
X148971987Y-109729236D01*
X149014441Y-109649810D01*
X149021321Y-109627129D01*
X149040585Y-109563627D01*
X149047200Y-109496460D01*
X149047200Y-109496450D01*
X149049411Y-109474000D01*
X149047200Y-109451550D01*
X149047200Y-107464450D01*
X149049411Y-107442000D01*
X149047200Y-107419550D01*
X149047200Y-107419540D01*
X149040585Y-107352373D01*
X149020526Y-107286249D01*
X149014441Y-107266190D01*
X148971987Y-107186764D01*
X148929171Y-107134592D01*
X148929165Y-107134586D01*
X148914853Y-107117147D01*
X148897415Y-107102836D01*
X146168770Y-104374193D01*
X146168770Y-103591593D01*
X146209429Y-103564426D01*
X146318212Y-103455643D01*
X146403683Y-103327726D01*
X146462557Y-103185593D01*
X146492570Y-103034706D01*
X146492570Y-102880862D01*
X146462557Y-102729975D01*
X146403683Y-102587842D01*
X146318212Y-102459925D01*
X146209429Y-102351142D01*
X146081512Y-102265671D01*
X145939379Y-102206797D01*
X145788492Y-102176784D01*
X145634648Y-102176784D01*
X145483761Y-102206797D01*
X145341628Y-102265671D01*
X145213711Y-102351142D01*
X145104928Y-102459925D01*
X145019457Y-102587842D01*
X144960583Y-102729975D01*
X144930570Y-102880862D01*
X144930570Y-103034706D01*
X144960583Y-103185593D01*
X145019457Y-103327726D01*
X145104928Y-103455643D01*
X145213711Y-103564426D01*
X145254370Y-103591594D01*
X145254371Y-104541110D01*
X145252159Y-104563570D01*
X145254371Y-104586030D01*
X145260986Y-104653197D01*
X145287130Y-104739379D01*
X145329584Y-104818806D01*
X145386718Y-104888423D01*
X145404163Y-104902740D01*
X147929263Y-107427842D01*
X147904922Y-107423000D01*
X147751078Y-107423000D01*
X147600191Y-107453013D01*
X147458058Y-107511887D01*
X147330141Y-107597358D01*
X147221358Y-107706141D01*
X147194191Y-107746800D01*
X147001378Y-107746800D01*
X136029700Y-96775123D01*
X136029700Y-95947309D01*
X136070359Y-95920142D01*
X136179142Y-95811359D01*
X136264613Y-95683442D01*
X136323487Y-95541309D01*
X136353500Y-95390422D01*
X136353500Y-95236578D01*
X136323487Y-95085691D01*
X136264613Y-94943558D01*
X136179142Y-94815641D01*
X136070359Y-94706858D01*
X135942442Y-94621387D01*
X135800309Y-94562513D01*
X135649422Y-94532500D01*
X135495578Y-94532500D01*
X135344691Y-94562513D01*
X135202558Y-94621387D01*
X135074641Y-94706858D01*
X134965858Y-94815641D01*
X134880387Y-94943558D01*
X134821513Y-95085691D01*
X134791500Y-95236578D01*
X128930000Y-95236578D01*
X128930000Y-93268078D01*
X133077000Y-93268078D01*
X133077000Y-93421922D01*
X133107013Y-93572809D01*
X133165887Y-93714942D01*
X133251358Y-93842859D01*
X133360141Y-93951642D01*
X133488058Y-94037113D01*
X133630191Y-94095987D01*
X133781078Y-94126000D01*
X133934922Y-94126000D01*
X134085809Y-94095987D01*
X134227942Y-94037113D01*
X134355859Y-93951642D01*
X134464642Y-93842859D01*
X134550113Y-93714942D01*
X134608987Y-93572809D01*
X134639000Y-93421922D01*
X134639000Y-93268078D01*
X134608987Y-93117191D01*
X134550113Y-92975058D01*
X134464642Y-92847141D01*
X134355859Y-92738358D01*
X134227942Y-92652887D01*
X134085809Y-92594013D01*
X133934922Y-92564000D01*
X133781078Y-92564000D01*
X133630191Y-92594013D01*
X133488058Y-92652887D01*
X133360141Y-92738358D01*
X133251358Y-92847141D01*
X133165887Y-92975058D01*
X133107013Y-93117191D01*
X133077000Y-93268078D01*
X128930000Y-93268078D01*
X128930000Y-92125078D01*
X152635000Y-92125078D01*
X152635000Y-92278922D01*
X152665013Y-92429809D01*
X152723887Y-92571942D01*
X152809358Y-92699859D01*
X152918141Y-92808642D01*
X152960582Y-92837000D01*
X152918141Y-92865358D01*
X152809358Y-92974141D01*
X152723887Y-93102058D01*
X152665013Y-93244191D01*
X152635000Y-93395078D01*
X152635000Y-93548922D01*
X152665013Y-93699809D01*
X152723887Y-93841942D01*
X152809358Y-93969859D01*
X152918141Y-94078642D01*
X153046058Y-94164113D01*
X153188191Y-94222987D01*
X153339078Y-94253000D01*
X153492922Y-94253000D01*
X153643809Y-94222987D01*
X153785942Y-94164113D01*
X153913859Y-94078642D01*
X154022642Y-93969859D01*
X154108113Y-93841942D01*
X154166987Y-93699809D01*
X154197000Y-93548922D01*
X154197000Y-93395078D01*
X154166987Y-93244191D01*
X154108113Y-93102058D01*
X154022642Y-92974141D01*
X153913859Y-92865358D01*
X153871418Y-92837000D01*
X153913859Y-92808642D01*
X154022642Y-92699859D01*
X154108113Y-92571942D01*
X154166987Y-92429809D01*
X154197000Y-92278922D01*
X154197000Y-92125078D01*
X154166987Y-91974191D01*
X154108113Y-91832058D01*
X154022642Y-91704141D01*
X153913859Y-91595358D01*
X153785942Y-91509887D01*
X153643809Y-91451013D01*
X153492922Y-91421000D01*
X153339078Y-91421000D01*
X153188191Y-91451013D01*
X153046058Y-91509887D01*
X152918141Y-91595358D01*
X152809358Y-91704141D01*
X152723887Y-91832058D01*
X152665013Y-91974191D01*
X152635000Y-92125078D01*
X128930000Y-92125078D01*
X128930000Y-88411855D01*
X128943527Y-88273894D01*
X128977827Y-88160287D01*
X129033539Y-88055509D01*
X129108543Y-87963545D01*
X129199982Y-87887901D01*
X129304371Y-87831458D01*
X129417732Y-87796367D01*
X129554424Y-87782000D01*
X166604145Y-87782000D01*
X166742106Y-87795527D01*
%TA.AperFunction,Conductor*%
D19*
G36*
X166742106Y-87795527D02*
G01*
X166855713Y-87829827D01*
X166960491Y-87885539D01*
X167052455Y-87960543D01*
X167128099Y-88051982D01*
X167184542Y-88156371D01*
X167219633Y-88269732D01*
X167234001Y-88406434D01*
X167234000Y-117328146D01*
X167220473Y-117466105D01*
X167186174Y-117579709D01*
X167130461Y-117684492D01*
X167055459Y-117776453D01*
X166964020Y-117852098D01*
X166859628Y-117908543D01*
X166746269Y-117943633D01*
X166609576Y-117958000D01*
X147001888Y-117958000D01*
X147054987Y-117829809D01*
X147085000Y-117678922D01*
X147085000Y-117525078D01*
X147054987Y-117374191D01*
X146996113Y-117232058D01*
X146910642Y-117104141D01*
X146801859Y-116995358D01*
X146673942Y-116909887D01*
X146531809Y-116851013D01*
X146380922Y-116821000D01*
X146227078Y-116821000D01*
X146076191Y-116851013D01*
X145934058Y-116909887D01*
X145806141Y-116995358D01*
X145697358Y-117104141D01*
X145611887Y-117232058D01*
X145553013Y-117374191D01*
X145523000Y-117525078D01*
X145523000Y-117678922D01*
X145553013Y-117829809D01*
X145606112Y-117958000D01*
X129559854Y-117958000D01*
X129421895Y-117944473D01*
X129308291Y-117910174D01*
X129203508Y-117854461D01*
X129111547Y-117779459D01*
X129035902Y-117688020D01*
X128979457Y-117583628D01*
X128944367Y-117470269D01*
X128930000Y-117333576D01*
X128930000Y-114112974D01*
X131656314Y-114112974D01*
X131660000Y-114150397D01*
X131660000Y-114150400D01*
X131671026Y-114262352D01*
X131714598Y-114405989D01*
X131785355Y-114538366D01*
X131880579Y-114654396D01*
X131909649Y-114678253D01*
X132805747Y-115574351D01*
X132829604Y-115603422D01*
X132945634Y-115698645D01*
X133078011Y-115769402D01*
X133221648Y-115812974D01*
X133333600Y-115824000D01*
X133333602Y-115824000D01*
X133371025Y-115827686D01*
X133408448Y-115824000D01*
X136614577Y-115824000D01*
X136652000Y-115827686D01*
X136689423Y-115824000D01*
X154394577Y-115824000D01*
X154432000Y-115827686D01*
X154469423Y-115824000D01*
X154469426Y-115824000D01*
X154581378Y-115812974D01*
X154725015Y-115769402D01*
X154857392Y-115698645D01*
X154973422Y-115603422D01*
X154997284Y-115574346D01*
X157992353Y-112579278D01*
X158021422Y-112555422D01*
X158082314Y-112481225D01*
X158116645Y-112439393D01*
X158169773Y-112339997D01*
X158187402Y-112307015D01*
X158230974Y-112163378D01*
X158242000Y-112051426D01*
X158242000Y-112051423D01*
X158245686Y-112014000D01*
X158242000Y-111976577D01*
X158242000Y-107868442D01*
X158261000Y-107772922D01*
X158261000Y-107619078D01*
X158242000Y-107523558D01*
X158242000Y-105423183D01*
X158743000Y-105423183D01*
X158743000Y-105695217D01*
X158796071Y-105962023D01*
X158900174Y-106213349D01*
X159051307Y-106439536D01*
X159243664Y-106631893D01*
X159469851Y-106783026D01*
X159721177Y-106887129D01*
X159932682Y-106929200D01*
X159721177Y-106971271D01*
X159469851Y-107075374D01*
X159243664Y-107226507D01*
X159051307Y-107418864D01*
X158900174Y-107645051D01*
X158796071Y-107896377D01*
X158743000Y-108163183D01*
X158743000Y-108435217D01*
X158796071Y-108702023D01*
X158900174Y-108953349D01*
X159051307Y-109179536D01*
X159243664Y-109371893D01*
X159469851Y-109523026D01*
X159721177Y-109627129D01*
X159987983Y-109680200D01*
X160260017Y-109680200D01*
X160526823Y-109627129D01*
X160778149Y-109523026D01*
X161004336Y-109371893D01*
X161196693Y-109179536D01*
X161347826Y-108953349D01*
X161451929Y-108702023D01*
X161505000Y-108435217D01*
X161505000Y-108163183D01*
X161451929Y-107896377D01*
X161347826Y-107645051D01*
X161196693Y-107418864D01*
X161004336Y-107226507D01*
X160778149Y-107075374D01*
X160526823Y-106971271D01*
X160315318Y-106929200D01*
X160526823Y-106887129D01*
X160778149Y-106783026D01*
X161004336Y-106631893D01*
X161196693Y-106439536D01*
X161347826Y-106213349D01*
X161451929Y-105962023D01*
X161505000Y-105695217D01*
X161505000Y-105423183D01*
X161451929Y-105156377D01*
X161347826Y-104905051D01*
X161196693Y-104678864D01*
X161004336Y-104486507D01*
X160778149Y-104335374D01*
X160526823Y-104231271D01*
X160260017Y-104178200D01*
X159987983Y-104178200D01*
X159721177Y-104231271D01*
X159469851Y-104335374D01*
X159243664Y-104486507D01*
X159051307Y-104678864D01*
X158900174Y-104905051D01*
X158796071Y-105156377D01*
X158743000Y-105423183D01*
X158242000Y-105423183D01*
X158242000Y-98470442D01*
X158261000Y-98374922D01*
X158261000Y-98221078D01*
X158242000Y-98125558D01*
X158242000Y-97454442D01*
X158261000Y-97358922D01*
X158261000Y-97205078D01*
X158260624Y-97203183D01*
X158743000Y-97203183D01*
X158743000Y-97475217D01*
X158796071Y-97742023D01*
X158900174Y-97993349D01*
X159051307Y-98219536D01*
X159243664Y-98411893D01*
X159469851Y-98563026D01*
X159721177Y-98667129D01*
X159932682Y-98709200D01*
X159721177Y-98751271D01*
X159469851Y-98855374D01*
X159243664Y-99006507D01*
X159051307Y-99198864D01*
X158900174Y-99425051D01*
X158796071Y-99676377D01*
X158743000Y-99943183D01*
X158743000Y-100215217D01*
X158796071Y-100482023D01*
X158900174Y-100733349D01*
X159051307Y-100959536D01*
X159243664Y-101151893D01*
X159469851Y-101303026D01*
X159721177Y-101407129D01*
X159987983Y-101460200D01*
X160260017Y-101460200D01*
X160526823Y-101407129D01*
X160778149Y-101303026D01*
X161004336Y-101151893D01*
X161196693Y-100959536D01*
X161347826Y-100733349D01*
X161451929Y-100482023D01*
X161505000Y-100215217D01*
X161505000Y-99943183D01*
X161451929Y-99676377D01*
X161347826Y-99425051D01*
X161196693Y-99198864D01*
X161004336Y-99006507D01*
X160778149Y-98855374D01*
X160526823Y-98751271D01*
X160315318Y-98709200D01*
X160526823Y-98667129D01*
X160753627Y-98573183D01*
X161583000Y-98573183D01*
X161583000Y-98845217D01*
X161636071Y-99112023D01*
X161740174Y-99363349D01*
X161891307Y-99589536D01*
X162083664Y-99781893D01*
X162309851Y-99933026D01*
X162561177Y-100037129D01*
X162772682Y-100079200D01*
X162561177Y-100121271D01*
X162309851Y-100225374D01*
X162083664Y-100376507D01*
X161891307Y-100568864D01*
X161740174Y-100795051D01*
X161636071Y-101046377D01*
X161583000Y-101313183D01*
X161583000Y-101585217D01*
X161636071Y-101852023D01*
X161740174Y-102103349D01*
X161891307Y-102329536D01*
X162083664Y-102521893D01*
X162309851Y-102673026D01*
X162561177Y-102777129D01*
X162772682Y-102819200D01*
X162561177Y-102861271D01*
X162309851Y-102965374D01*
X162083664Y-103116507D01*
X161891307Y-103308864D01*
X161740174Y-103535051D01*
X161636071Y-103786377D01*
X161583000Y-104053183D01*
X161583000Y-104325217D01*
X161636071Y-104592023D01*
X161740174Y-104843349D01*
X161891307Y-105069536D01*
X162083664Y-105261893D01*
X162309851Y-105413026D01*
X162561177Y-105517129D01*
X162772682Y-105559200D01*
X162561177Y-105601271D01*
X162309851Y-105705374D01*
X162083664Y-105856507D01*
X161891307Y-106048864D01*
X161740174Y-106275051D01*
X161636071Y-106526377D01*
X161583000Y-106793183D01*
X161583000Y-107065217D01*
X161636071Y-107332023D01*
X161740174Y-107583349D01*
X161891307Y-107809536D01*
X162083664Y-108001893D01*
X162309851Y-108153026D01*
X162561177Y-108257129D01*
X162827983Y-108310200D01*
X163100017Y-108310200D01*
X163366823Y-108257129D01*
X163618149Y-108153026D01*
X163844336Y-108001893D01*
X164036693Y-107809536D01*
X164187826Y-107583349D01*
X164291929Y-107332023D01*
X164345000Y-107065217D01*
X164345000Y-106793183D01*
X164291929Y-106526377D01*
X164187826Y-106275051D01*
X164036693Y-106048864D01*
X163844336Y-105856507D01*
X163618149Y-105705374D01*
X163366823Y-105601271D01*
X163155318Y-105559200D01*
X163366823Y-105517129D01*
X163618149Y-105413026D01*
X163844336Y-105261893D01*
X164036693Y-105069536D01*
X164187826Y-104843349D01*
X164291929Y-104592023D01*
X164345000Y-104325217D01*
X164345000Y-104053183D01*
X164291929Y-103786377D01*
X164187826Y-103535051D01*
X164036693Y-103308864D01*
X163844336Y-103116507D01*
X163618149Y-102965374D01*
X163366823Y-102861271D01*
X163155318Y-102819200D01*
X163366823Y-102777129D01*
X163618149Y-102673026D01*
X163844336Y-102521893D01*
X164036693Y-102329536D01*
X164187826Y-102103349D01*
X164291929Y-101852023D01*
X164345000Y-101585217D01*
X164345000Y-101313183D01*
X164291929Y-101046377D01*
X164187826Y-100795051D01*
X164036693Y-100568864D01*
X163844336Y-100376507D01*
X163618149Y-100225374D01*
X163366823Y-100121271D01*
X163155318Y-100079200D01*
X163366823Y-100037129D01*
X163618149Y-99933026D01*
X163844336Y-99781893D01*
X164036693Y-99589536D01*
X164187826Y-99363349D01*
X164291929Y-99112023D01*
X164345000Y-98845217D01*
X164345000Y-98573183D01*
X164291929Y-98306377D01*
X164187826Y-98055051D01*
X164036693Y-97828864D01*
X163844336Y-97636507D01*
X163618149Y-97485374D01*
X163366823Y-97381271D01*
X163100017Y-97328200D01*
X162827983Y-97328200D01*
X162561177Y-97381271D01*
X162309851Y-97485374D01*
X162083664Y-97636507D01*
X161891307Y-97828864D01*
X161740174Y-98055051D01*
X161636071Y-98306377D01*
X161583000Y-98573183D01*
X160753627Y-98573183D01*
X160778149Y-98563026D01*
X161004336Y-98411893D01*
X161196693Y-98219536D01*
X161347826Y-97993349D01*
X161451929Y-97742023D01*
X161505000Y-97475217D01*
X161505000Y-97203183D01*
X161451929Y-96936377D01*
X161347826Y-96685051D01*
X161196693Y-96458864D01*
X161004336Y-96266507D01*
X160778149Y-96115374D01*
X160526823Y-96011271D01*
X160260017Y-95958200D01*
X159987983Y-95958200D01*
X159721177Y-96011271D01*
X159469851Y-96115374D01*
X159243664Y-96266507D01*
X159051307Y-96458864D01*
X158900174Y-96685051D01*
X158796071Y-96936377D01*
X158743000Y-97203183D01*
X158260624Y-97203183D01*
X158230987Y-97054191D01*
X158172113Y-96912058D01*
X158086642Y-96784141D01*
X157977859Y-96675358D01*
X157849942Y-96589887D01*
X157707809Y-96531013D01*
X157556922Y-96501000D01*
X157403078Y-96501000D01*
X157252191Y-96531013D01*
X157110058Y-96589887D01*
X156982141Y-96675358D01*
X156873358Y-96784141D01*
X156787887Y-96912058D01*
X156729013Y-97054191D01*
X156699000Y-97205078D01*
X156699000Y-97358922D01*
X156718001Y-97454446D01*
X156718000Y-98125557D01*
X156699000Y-98221078D01*
X156699000Y-98374922D01*
X156718001Y-98470447D01*
X156718000Y-107523557D01*
X156699000Y-107619078D01*
X156699000Y-107772922D01*
X156718000Y-107868443D01*
X156718000Y-109003425D01*
X156718001Y-109003435D01*
X156718000Y-111698369D01*
X154116370Y-114300000D01*
X137434000Y-114300000D01*
X137434000Y-112230574D01*
X137422974Y-112118622D01*
X137379402Y-111974985D01*
X137308645Y-111842608D01*
X137213422Y-111726578D01*
X137097391Y-111631355D01*
X136965014Y-111560598D01*
X136821377Y-111517026D01*
X136672000Y-111502314D01*
X136522622Y-111517026D01*
X136378985Y-111560598D01*
X136246608Y-111631355D01*
X136218941Y-111654061D01*
X136168258Y-111620196D01*
X136035225Y-111565092D01*
X135893997Y-111537000D01*
X135750003Y-111537000D01*
X135608775Y-111565092D01*
X135475742Y-111620196D01*
X135397000Y-111672810D01*
X135325270Y-111624881D01*
X135339822Y-111621987D01*
X135481955Y-111563113D01*
X135609872Y-111477642D01*
X135718655Y-111368859D01*
X135804126Y-111240942D01*
X135863000Y-111098809D01*
X135893013Y-110947922D01*
X135893013Y-110794078D01*
X135863000Y-110643191D01*
X135804126Y-110501058D01*
X135718655Y-110373141D01*
X135609872Y-110264358D01*
X135481955Y-110178887D01*
X135339822Y-110120013D01*
X135188935Y-110090000D01*
X135035091Y-110090000D01*
X134884204Y-110120013D01*
X134742071Y-110178887D01*
X134614154Y-110264358D01*
X134612007Y-110266506D01*
X134609859Y-110264358D01*
X134481942Y-110178887D01*
X134339809Y-110120013D01*
X134188922Y-110090000D01*
X134035078Y-110090000D01*
X133884191Y-110120013D01*
X133742058Y-110178887D01*
X133614141Y-110264358D01*
X133505358Y-110373141D01*
X133419887Y-110501058D01*
X133361013Y-110643191D01*
X133331000Y-110794078D01*
X133331000Y-110947922D01*
X133361013Y-111098809D01*
X133419887Y-111240942D01*
X133505358Y-111368859D01*
X133614141Y-111477642D01*
X133742058Y-111563113D01*
X133766663Y-111573305D01*
X133740013Y-111605778D01*
X133708176Y-111665342D01*
X133697000Y-111672810D01*
X133618258Y-111620196D01*
X133485225Y-111565092D01*
X133343997Y-111537000D01*
X133200003Y-111537000D01*
X133058775Y-111565092D01*
X132925742Y-111620196D01*
X132875059Y-111654061D01*
X132847391Y-111631355D01*
X132715014Y-111560598D01*
X132571377Y-111517026D01*
X132422000Y-111502314D01*
X132272622Y-111517026D01*
X132128985Y-111560598D01*
X131996608Y-111631355D01*
X131880578Y-111726578D01*
X131785355Y-111842609D01*
X131714598Y-111974986D01*
X131671026Y-112118623D01*
X131660000Y-112230575D01*
X131660001Y-113580565D01*
X131660000Y-113580575D01*
X131660000Y-114075551D01*
X131656314Y-114112974D01*
X128930000Y-114112974D01*
X128930000Y-107111078D01*
X142325810Y-107111078D01*
X142325810Y-107264922D01*
X142355823Y-107415809D01*
X142414697Y-107557942D01*
X142500168Y-107685859D01*
X142608951Y-107794642D01*
X142736868Y-107880113D01*
X142879001Y-107938987D01*
X143029888Y-107969000D01*
X143183732Y-107969000D01*
X143334619Y-107938987D01*
X143476752Y-107880113D01*
X143604669Y-107794642D01*
X143713452Y-107685859D01*
X143798923Y-107557942D01*
X143857797Y-107415809D01*
X143887810Y-107264922D01*
X143887810Y-107111078D01*
X143857797Y-106960191D01*
X143798923Y-106818058D01*
X143713452Y-106690141D01*
X143604669Y-106581358D01*
X143476752Y-106495887D01*
X143334619Y-106437013D01*
X143183732Y-106407000D01*
X143029888Y-106407000D01*
X142879001Y-106437013D01*
X142736868Y-106495887D01*
X142608951Y-106581358D01*
X142500168Y-106690141D01*
X142414697Y-106818058D01*
X142355823Y-106960191D01*
X142325810Y-107111078D01*
X128930000Y-107111078D01*
X128930000Y-105587078D01*
X133204000Y-105587078D01*
X133204000Y-105740922D01*
X133234013Y-105891809D01*
X133292887Y-106033942D01*
X133378358Y-106161859D01*
X133487141Y-106270642D01*
X133615058Y-106356113D01*
X133757191Y-106414987D01*
X133908078Y-106445000D01*
X134061922Y-106445000D01*
X134212809Y-106414987D01*
X134354942Y-106356113D01*
X134482859Y-106270642D01*
X134591642Y-106161859D01*
X134677113Y-106033942D01*
X134735987Y-105891809D01*
X134766000Y-105740922D01*
X134766000Y-105587078D01*
X134735987Y-105436191D01*
X134677113Y-105294058D01*
X134591642Y-105166141D01*
X134482859Y-105057358D01*
X134354942Y-104971887D01*
X134212809Y-104913013D01*
X134061922Y-104883000D01*
X133908078Y-104883000D01*
X133757191Y-104913013D01*
X133615058Y-104971887D01*
X133487141Y-105057358D01*
X133378358Y-105166141D01*
X133292887Y-105294058D01*
X133234013Y-105436191D01*
X133204000Y-105587078D01*
X128930000Y-105587078D01*
X128930000Y-95236578D01*
X134791500Y-95236578D01*
X134791500Y-95390422D01*
X134821513Y-95541309D01*
X134880387Y-95683442D01*
X134965858Y-95811359D01*
X135074641Y-95920142D01*
X135115301Y-95947310D01*
X135115300Y-96942050D01*
X135113089Y-96964500D01*
X135115300Y-96986950D01*
X135115300Y-96986959D01*
X135121915Y-97054126D01*
X135148059Y-97140308D01*
X135190513Y-97219735D01*
X135247647Y-97289353D01*
X135265097Y-97303674D01*
X146472830Y-108511408D01*
X146487147Y-108528853D01*
X146504592Y-108543170D01*
X146556763Y-108585987D01*
X146599217Y-108608678D01*
X146636191Y-108628441D01*
X146722373Y-108654585D01*
X146789540Y-108661200D01*
X146789549Y-108661200D01*
X146811999Y-108663411D01*
X146834449Y-108661200D01*
X147194191Y-108661200D01*
X147221358Y-108701859D01*
X147330141Y-108810642D01*
X147458058Y-108896113D01*
X147600191Y-108954987D01*
X147751078Y-108985000D01*
X147904922Y-108985000D01*
X148055809Y-108954987D01*
X148132801Y-108923096D01*
X148132801Y-109284620D01*
X147638623Y-109778800D01*
X147191809Y-109778800D01*
X147164642Y-109738141D01*
X147055859Y-109629358D01*
X146927942Y-109543887D01*
X146785809Y-109485013D01*
X146634922Y-109455000D01*
X146481078Y-109455000D01*
X146330191Y-109485013D01*
X146188058Y-109543887D01*
X146060141Y-109629358D01*
X145951358Y-109738141D01*
X145865887Y-109866058D01*
X145807013Y-110008191D01*
X145777000Y-110159078D01*
X145777000Y-110312922D01*
X145807013Y-110463809D01*
X145865887Y-110605942D01*
X145951358Y-110733859D01*
X146060141Y-110842642D01*
X146188058Y-110928113D01*
X146330191Y-110986987D01*
X146481078Y-111017000D01*
X146634922Y-111017000D01*
X146785809Y-110986987D01*
X146927942Y-110928113D01*
X147055859Y-110842642D01*
X147164642Y-110733859D01*
X147191809Y-110693200D01*
X147805550Y-110693200D01*
X147828000Y-110695411D01*
X147850450Y-110693200D01*
X147850460Y-110693200D01*
X147917627Y-110686585D01*
X148003809Y-110660441D01*
X148083236Y-110617987D01*
X148152853Y-110560853D01*
X148167174Y-110543403D01*
X148897413Y-109813165D01*
X148914853Y-109798853D01*
X148929165Y-109781414D01*
X148929171Y-109781408D01*
X148971987Y-109729236D01*
X149014441Y-109649810D01*
X149021321Y-109627129D01*
X149040585Y-109563627D01*
X149047200Y-109496460D01*
X149047200Y-109496450D01*
X149049411Y-109474000D01*
X149047200Y-109451550D01*
X149047200Y-107464450D01*
X149049411Y-107442000D01*
X149047200Y-107419550D01*
X149047200Y-107419540D01*
X149040585Y-107352373D01*
X149020526Y-107286249D01*
X149014441Y-107266190D01*
X148971987Y-107186764D01*
X148929171Y-107134592D01*
X148929165Y-107134586D01*
X148914853Y-107117147D01*
X148897415Y-107102836D01*
X146168770Y-104374193D01*
X146168770Y-103591593D01*
X146209429Y-103564426D01*
X146318212Y-103455643D01*
X146403683Y-103327726D01*
X146462557Y-103185593D01*
X146492570Y-103034706D01*
X146492570Y-102880862D01*
X146462557Y-102729975D01*
X146403683Y-102587842D01*
X146318212Y-102459925D01*
X146209429Y-102351142D01*
X146081512Y-102265671D01*
X145939379Y-102206797D01*
X145788492Y-102176784D01*
X145634648Y-102176784D01*
X145483761Y-102206797D01*
X145341628Y-102265671D01*
X145213711Y-102351142D01*
X145104928Y-102459925D01*
X145019457Y-102587842D01*
X144960583Y-102729975D01*
X144930570Y-102880862D01*
X144930570Y-103034706D01*
X144960583Y-103185593D01*
X145019457Y-103327726D01*
X145104928Y-103455643D01*
X145213711Y-103564426D01*
X145254370Y-103591594D01*
X145254371Y-104541110D01*
X145252159Y-104563570D01*
X145254371Y-104586030D01*
X145260986Y-104653197D01*
X145287130Y-104739379D01*
X145329584Y-104818806D01*
X145386718Y-104888423D01*
X145404163Y-104902740D01*
X147929263Y-107427842D01*
X147904922Y-107423000D01*
X147751078Y-107423000D01*
X147600191Y-107453013D01*
X147458058Y-107511887D01*
X147330141Y-107597358D01*
X147221358Y-107706141D01*
X147194191Y-107746800D01*
X147001378Y-107746800D01*
X136029700Y-96775123D01*
X136029700Y-95947309D01*
X136070359Y-95920142D01*
X136179142Y-95811359D01*
X136264613Y-95683442D01*
X136323487Y-95541309D01*
X136353500Y-95390422D01*
X136353500Y-95236578D01*
X136323487Y-95085691D01*
X136264613Y-94943558D01*
X136179142Y-94815641D01*
X136070359Y-94706858D01*
X135942442Y-94621387D01*
X135800309Y-94562513D01*
X135649422Y-94532500D01*
X135495578Y-94532500D01*
X135344691Y-94562513D01*
X135202558Y-94621387D01*
X135074641Y-94706858D01*
X134965858Y-94815641D01*
X134880387Y-94943558D01*
X134821513Y-95085691D01*
X134791500Y-95236578D01*
X128930000Y-95236578D01*
X128930000Y-93268078D01*
X133077000Y-93268078D01*
X133077000Y-93421922D01*
X133107013Y-93572809D01*
X133165887Y-93714942D01*
X133251358Y-93842859D01*
X133360141Y-93951642D01*
X133488058Y-94037113D01*
X133630191Y-94095987D01*
X133781078Y-94126000D01*
X133934922Y-94126000D01*
X134085809Y-94095987D01*
X134227942Y-94037113D01*
X134355859Y-93951642D01*
X134464642Y-93842859D01*
X134550113Y-93714942D01*
X134608987Y-93572809D01*
X134639000Y-93421922D01*
X134639000Y-93268078D01*
X134608987Y-93117191D01*
X134550113Y-92975058D01*
X134464642Y-92847141D01*
X134355859Y-92738358D01*
X134227942Y-92652887D01*
X134085809Y-92594013D01*
X133934922Y-92564000D01*
X133781078Y-92564000D01*
X133630191Y-92594013D01*
X133488058Y-92652887D01*
X133360141Y-92738358D01*
X133251358Y-92847141D01*
X133165887Y-92975058D01*
X133107013Y-93117191D01*
X133077000Y-93268078D01*
X128930000Y-93268078D01*
X128930000Y-92125078D01*
X152635000Y-92125078D01*
X152635000Y-92278922D01*
X152665013Y-92429809D01*
X152723887Y-92571942D01*
X152809358Y-92699859D01*
X152918141Y-92808642D01*
X152960582Y-92837000D01*
X152918141Y-92865358D01*
X152809358Y-92974141D01*
X152723887Y-93102058D01*
X152665013Y-93244191D01*
X152635000Y-93395078D01*
X152635000Y-93548922D01*
X152665013Y-93699809D01*
X152723887Y-93841942D01*
X152809358Y-93969859D01*
X152918141Y-94078642D01*
X153046058Y-94164113D01*
X153188191Y-94222987D01*
X153339078Y-94253000D01*
X153492922Y-94253000D01*
X153643809Y-94222987D01*
X153785942Y-94164113D01*
X153913859Y-94078642D01*
X154022642Y-93969859D01*
X154108113Y-93841942D01*
X154166987Y-93699809D01*
X154197000Y-93548922D01*
X154197000Y-93395078D01*
X154166987Y-93244191D01*
X154108113Y-93102058D01*
X154022642Y-92974141D01*
X153913859Y-92865358D01*
X153871418Y-92837000D01*
X153913859Y-92808642D01*
X154022642Y-92699859D01*
X154108113Y-92571942D01*
X154166987Y-92429809D01*
X154197000Y-92278922D01*
X154197000Y-92125078D01*
X154166987Y-91974191D01*
X154108113Y-91832058D01*
X154022642Y-91704141D01*
X153913859Y-91595358D01*
X153785942Y-91509887D01*
X153643809Y-91451013D01*
X153492922Y-91421000D01*
X153339078Y-91421000D01*
X153188191Y-91451013D01*
X153046058Y-91509887D01*
X152918141Y-91595358D01*
X152809358Y-91704141D01*
X152723887Y-91832058D01*
X152665013Y-91974191D01*
X152635000Y-92125078D01*
X128930000Y-92125078D01*
X128930000Y-88411855D01*
X128943527Y-88273894D01*
X128977827Y-88160287D01*
X129033539Y-88055509D01*
X129108543Y-87963545D01*
X129199982Y-87887901D01*
X129304371Y-87831458D01*
X129417732Y-87796367D01*
X129554424Y-87782000D01*
X166604145Y-87782000D01*
X166742106Y-87795527D01*
G37*
%TD.AperFunction*%
M02*
