M48
; DRILL file {KiCad (5.1.9)-1} date 02/06/21 23:27:26
; FORMAT={-:-/ absolute / inch / decimal}
; #@! TF.CreationDate,2021-02-06T23:27:26-06:00
; #@! TF.GenerationSoftware,Kicad,Pcbnew,(5.1.9)-1
FMAT,2
INCH
T1C0.0157
T2C0.0236
T3C0.0409
T4C0.1248
%
G90
G05
T1
X5.175Y-3.82
X5.18Y-4.42
X5.18Y-4.4731
X5.2Y-4.16
X5.2135Y-4.42
X5.2135Y-4.4731
X5.2469Y-4.42
X5.2469Y-4.4731
X5.27Y-3.675
X5.275Y-4.16
X5.28Y-4.365
X5.2804Y-4.42
X5.2804Y-4.4731
X5.3139Y-4.42
X5.3139Y-4.4731
X5.3194Y-4.365
X5.3375Y-3.7525
X5.3473Y-4.42
X5.3473Y-4.4731
X5.38Y-3.47
X5.38Y-3.605
X5.3808Y-4.42
X5.3808Y-4.4731
X5.3813Y-3.7487
X5.4143Y-4.42
X5.4143Y-4.4731
X5.4913Y-3.8937
X5.5Y-3.75
X5.545Y-3.47
X5.59Y-3.75
X5.6274Y-4.2674
X5.6341Y-4.22
X5.71Y-3.47
X5.71Y-3.605
X5.71Y-3.75
X5.7367Y-4.0535
X5.76Y-4.63
X5.77Y-4.34
X5.82Y-4.26
X5.95Y-3.63
X5.95Y-3.68
X6.04Y-3.63
X6.04Y-3.68
X6.2Y-3.83
X6.2Y-3.87
X6.2Y-4.24
T3
X6.3041Y-3.8323
X6.3041Y-3.9401
X6.3041Y-4.048
X6.3041Y-4.1559
X6.3041Y-4.2637
X6.4159Y-3.8862
X6.4159Y-3.9941
X6.4159Y-4.1019
X6.4159Y-4.2098
T4
X6.36Y-3.5561
X6.36Y-4.5399
T2
G00X5.1269Y-4.4291
M15
G01X5.1269Y-4.4881
M16
G05
G00X5.1269Y-4.5759
M15
G01X5.1269Y-4.6074
M16
G05
G00X5.4674Y-4.4291
M15
G01X5.4674Y-4.4881
M16
G05
G00X5.4674Y-4.5759
M15
G01X5.4674Y-4.6074
M16
G05
T0
M30
